<?xml version="1.0" encoding="UTF-8" standalone="no"?>
<!-- Created with Inkscape (http://www.inkscape.org/) -->

<svg
   xmlns:dc="http://purl.org/dc/elements/1.1/"
   xmlns:cc="http://creativecommons.org/ns#"
   xmlns:rdf="http://www.w3.org/1999/02/22-rdf-syntax-ns#"
   xmlns:svg="http://www.w3.org/2000/svg"
   xmlns="http://www.w3.org/2000/svg"
   xmlns:sodipodi="http://sodipodi.sourceforge.net/DTD/sodipodi-0.dtd"
   xmlns:inkscape="http://www.inkscape.org/namespaces/inkscape"
   width="210mm"
   height="297mm"
   viewBox="0 0 744.09448819 1052.3622047"
   id="svg4608"
   version="1.1"
   inkscape:version="0.91 r"
   sodipodi:docname="viasock_logo.svg">
  <defs
     id="defs4610">
    <inkscape:path-effect
       is_visible="true"
       id="path-effect5921"
       effect="spiro" />
    <inkscape:path-effect
       effect="spiro"
       id="path-effect5918"
       is_visible="true" />
    <inkscape:path-effect
       is_visible="true"
       id="path-effect5915"
       effect="spiro" />
    <inkscape:path-effect
       is_visible="true"
       id="path-effect5307"
       effect="spiro" />
    <inkscape:path-effect
       effect="spiro"
       id="path-effect5304"
       is_visible="true" />
    <inkscape:path-effect
       is_visible="true"
       id="path-effect5301"
       effect="spiro" />
    <inkscape:path-effect
       effect="spiro"
       id="path-effect5298"
       is_visible="true" />
    <inkscape:path-effect
       is_visible="true"
       id="path-effect4567"
       effect="spiro" />
    <inkscape:path-effect
       effect="spiro"
       id="path-effect4563"
       is_visible="true" />
    <inkscape:path-effect
       is_visible="true"
       id="path-effect4559"
       effect="spiro" />
    <inkscape:path-effect
       effect="spiro"
       id="path-effect4555"
       is_visible="true" />
  </defs>
  <sodipodi:namedview
     id="base"
     pagecolor="#ffffff"
     bordercolor="#666666"
     borderopacity="1.0"
     inkscape:pageopacity="0.0"
     inkscape:pageshadow="2"
     inkscape:zoom="1"
     inkscape:cx="302.22087"
     inkscape:cy="387.17679"
     inkscape:document-units="px"
     inkscape:current-layer="layer1"
     showgrid="false"
     inkscape:window-width="1920"
     inkscape:window-height="1003"
     inkscape:window-x="0"
     inkscape:window-y="25"
     inkscape:window-maximized="1" />
  <metadata
     id="metadata4613">
    <rdf:RDF>
      <cc:Work
         rdf:about="">
        <dc:format>image/svg+xml</dc:format>
        <dc:type
           rdf:resource="http://purl.org/dc/dcmitype/StillImage" />
        <dc:title />
      </cc:Work>
    </rdf:RDF>
  </metadata>
  <g
     inkscape:label="Layer 1"
     inkscape:groupmode="layer"
     id="layer1">
    <rect
       style="color:#000000;display:inline;overflow:visible;visibility:visible;opacity:0.98999999;fill:#ffffff;fill-opacity:1;fill-rule:nonzero;stroke:#ffffff;stroke-width:0;stroke-linecap:round;stroke-linejoin:bevel;stroke-miterlimit:4;stroke-dasharray:none;stroke-dashoffset:0;stroke-opacity:1;marker:none;enable-background:accumulate"
       id="rect4235"
       width="313"
       height="244"
       x="206"
       y="672.36218"
       inkscape:export-xdpi="300"
       inkscape:export-ydpi="300" />
    <g
       id="g5773">
      <g
         transform="translate(-12.121831,2.4093561e-7)"
         id="g5214">
        <g
           id="g4392"
           transform="matrix(1.9356144,0,0,1.9356144,-23.527903,-1667.4605)">
          <path
             inkscape:export-ydpi="90"
             inkscape:export-xdpi="90"
             d="m 144.25959,987.44828 q -0.52,0 -0.8,-0.32 -0.28,-0.32 -0.44,-0.68 l -7.96,-18.56 q -0.04,-0.12 -0.04,-0.28 0,-0.4 0.28,-0.68 0.28,-0.28 0.68,-0.28 l 1.48,0 q 0.6,0 0.88,0.32 0.32,0.32 0.44,0.64 l 6.2,14.52 6.2,-14.52 q 0.12,-0.32 0.4,-0.64 0.28,-0.32 0.76,-0.32 l 1.64,0 q 0.4,0 0.68,0.28 0.28,0.28 0.28,0.68 0,0.16 -0.04,0.28 l -7.96,18.56 q -0.16,0.36 -0.44,0.68 -0.24,0.32 -0.76,0.32 l -1.48,0 z"
             style="font-style:normal;font-variant:normal;font-weight:normal;font-stretch:normal;font-size:medium;line-height:125%;font-family:Rubik;-inkscape-font-specification:Rubik;letter-spacing:0px;word-spacing:0px;fill:#000000;fill-opacity:1;stroke:none;stroke-width:1px;stroke-linecap:butt;stroke-linejoin:miter;stroke-opacity:1"
             id="path4394"
             inkscape:connector-curvature="0" />
          <path
             inkscape:export-ydpi="90"
             inkscape:export-xdpi="90"
             id="path4396"
             d="m 162.84147,986.36828 q 0,0.44 -0.32,0.76 -0.32,0.32 -0.76,0.32 l -1.48,0 q -0.44,0 -0.76,-0.32 -0.32,-0.32 -0.32,-0.76 l 0,-18.64 q 0,-0.44 0.32,-0.76 0.32,-0.32 0.76,-0.32 l 1.48,0 q 0.44,0 0.76,0.32 0.32,0.32 0.32,0.76 l 0,18.64 z"
             style="font-style:normal;font-variant:normal;font-weight:normal;font-stretch:normal;font-size:medium;line-height:125%;font-family:Rubik;-inkscape-font-specification:Rubik;letter-spacing:0px;word-spacing:0px;fill:#000000;fill-opacity:1;stroke:none;stroke-width:1px;stroke-linecap:butt;stroke-linejoin:miter;stroke-opacity:1"
             inkscape:connector-curvature="0" />
          <path
             inkscape:export-ydpi="90"
             inkscape:export-xdpi="90"
             id="path4398"
             d="m 163.24147,962.40828 q 0,0.44 -0.32,0.76 -0.32,0.32 -0.76,0.32 l -2.28,0 q -0.44,0 -0.76,-0.32 -0.32,-0.32 -0.32,-0.76 l 0,-2.28 q 0,-0.44 0.32,-0.76 0.32,-0.32 0.76,-0.32 l 2.28,0 q 0.44,0 0.76,0.32 0.32,0.32 0.32,0.76 l 0,2.28 z"
             style="font-style:normal;font-variant:normal;font-weight:normal;font-stretch:normal;font-size:medium;line-height:125%;font-family:Rubik;-inkscape-font-specification:Rubik;letter-spacing:0px;word-spacing:0px;fill:#000000;fill-opacity:1;stroke:none;stroke-width:1px;stroke-linecap:butt;stroke-linejoin:miter;stroke-opacity:1"
             inkscape:connector-curvature="0" />
          <path
             inkscape:export-ydpi="90"
             inkscape:export-xdpi="90"
             d="m 167.33084,982.20828 q 0,-1.6 0.64,-2.8 0.64,-1.2 1.76,-2.04 1.12,-0.84 2.6,-1.36 1.52,-0.52 3.2,-0.8 l 5.64,-0.92 0,-0.52 q 0,-2.04 -1.36,-3.04 -1.32,-1.04 -3.32,-1.04 -1.76,0 -2.68,0.64 -0.88,0.64 -1.52,1.52 -0.24,0.32 -0.52,0.44 -0.28,0.12 -0.76,0.12 l -1.2,0 q -0.44,0 -0.8,-0.32 -0.32,-0.32 -0.28,-0.76 0.08,-0.88 0.68,-1.8 0.64,-0.92 1.68,-1.64 1.08,-0.72 2.44,-1.16 1.4,-0.48 2.96,-0.48 1.8,0 3.32,0.52 1.56,0.52 2.64,1.52 1.12,1 1.72,2.48 0.64,1.48 0.64,3.4 l 0,12.2 q 0,0.44 -0.32,0.76 -0.32,0.32 -0.76,0.32 l -1.48,0 q -0.44,0 -0.76,-0.32 -0.32,-0.32 -0.32,-0.76 l 0,-1.64 q -0.36,0.76 -1.12,1.36 -0.76,0.56 -1.76,0.96 -0.96,0.4 -2.04,0.6 -1.04,0.2 -1.96,0.2 -1.56,0 -2.88,-0.44 -1.28,-0.44 -2.2,-1.16 -0.88,-0.76 -1.4,-1.8 -0.48,-1.04 -0.48,-2.24 z m 7.36,2.2 q 1.44,0 2.64,-0.44 1.2,-0.44 2.04,-1.2 0.88,-0.8 1.32,-1.88 0.48,-1.08 0.48,-2.4 l 0,-1 -4.72,0.76 q -2.52,0.4 -4,1.28 -1.48,0.88 -1.48,2.28 0,0.44 0.2,0.88 0.2,0.44 0.64,0.84 0.44,0.4 1.12,0.64 0.72,0.24 1.76,0.24 z"
             style="font-style:normal;font-variant:normal;font-weight:normal;font-stretch:normal;font-size:medium;line-height:125%;font-family:Rubik;-inkscape-font-specification:Rubik;letter-spacing:0px;word-spacing:0px;fill:#000000;fill-opacity:1;stroke:none;stroke-width:1px;stroke-linecap:butt;stroke-linejoin:miter;stroke-opacity:1"
             id="path4400"
             inkscape:connector-curvature="0" />
          <path
             inkscape:export-ydpi="90"
             inkscape:export-xdpi="90"
             d="m 202.52584,981.68828 q 0,-0.76 -0.44,-1.24 -0.4,-0.52 -1.24,-0.88 -0.84,-0.36 -2.16,-0.68 -1.28,-0.32 -3,-0.68 -3.24,-0.68 -4.56,-2.24 -1.28,-1.6 -1.28,-3.72 0,-1.2 0.48,-2.28 0.48,-1.08 1.44,-1.92 0.96,-0.84 2.4,-1.32 1.48,-0.48 3.44,-0.48 1.96,0 3.4,0.44 1.48,0.44 2.48,1.12 1,0.68 1.52,1.48 0.52,0.76 0.56,1.48 0.04,0.44 -0.32,0.76 -0.32,0.32 -0.76,0.32 l -1.32,0 q -0.24,0 -0.6,-0.08 -0.32,-0.12 -0.6,-0.48 -0.52,-0.68 -1.56,-1.12 -1,-0.48 -2.8,-0.48 -1.84,0 -3,0.68 -1.12,0.68 -1.12,1.88 0,0.76 0.32,1.24 0.32,0.44 1.04,0.8 0.72,0.32 1.88,0.6 1.2,0.28 2.96,0.68 1.84,0.4 3.08,1.04 1.24,0.6 2,1.4 0.76,0.76 1.08,1.72 0.32,0.92 0.32,1.96 0,1.2 -0.6,2.32 -0.56,1.12 -1.64,1.96 -1.08,0.84 -2.64,1.36 -1.52,0.52 -3.48,0.52 -1.96,0 -3.48,-0.48 -1.52,-0.48 -2.6,-1.16 -1.08,-0.72 -1.68,-1.52 -0.56,-0.84 -0.6,-1.56 -0.04,-0.44 0.28,-0.76 0.32,-0.32 0.8,-0.32 l 1.44,0 q 0.24,0 0.56,0.08 0.32,0.04 0.6,0.44 0.64,0.88 1.76,1.36 1.12,0.48 2.92,0.48 0.88,0 1.72,-0.2 0.88,-0.2 1.52,-0.56 0.68,-0.36 1.08,-0.84 0.4,-0.52 0.4,-1.12 z"
             style="font-style:normal;font-variant:normal;font-weight:normal;font-stretch:normal;font-size:medium;line-height:125%;font-family:Rubik;-inkscape-font-specification:Rubik;letter-spacing:0px;word-spacing:0px;fill:#000000;fill-opacity:1;stroke:none;stroke-width:1px;stroke-linecap:butt;stroke-linejoin:miter;stroke-opacity:1"
             id="path4402"
             inkscape:connector-curvature="0" />
          <path
             inkscape:export-ydpi="90"
             inkscape:export-xdpi="90"
             d="m 219.44022,966.24828 q 2.16,0 3.84,0.68 1.68,0.64 2.88,1.8 1.2,1.16 1.88,2.84 0.72,1.64 0.88,3.6 0.04,0.36 0.04,0.88 0,0.48 0,1.04 0,0.52 0,1.04 0,0.48 -0.04,0.8 -0.2,2 -0.88,3.64 -0.68,1.64 -1.88,2.8 -1.2,1.16 -2.88,1.84 -1.68,0.64 -3.84,0.64 -2.16,0 -3.84,-0.64 -1.68,-0.68 -2.88,-1.84 -1.2,-1.16 -1.92,-2.8 -0.68,-1.64 -0.84,-3.64 -0.04,-0.32 -0.08,-0.8 0,-0.52 0,-1.04 0,-0.56 0,-1.04 0.04,-0.52 0.08,-0.88 0.16,-1.96 0.84,-3.6 0.72,-1.68 1.92,-2.84 1.2,-1.16 2.88,-1.8 1.68,-0.68 3.84,-0.68 z m 5.84,12.48 q 0.08,-0.68 0.08,-1.64 0,-1 -0.08,-1.72 -0.12,-1.2 -0.52,-2.24 -0.4,-1.04 -1.12,-1.8 -0.72,-0.76 -1.76,-1.2 -1.04,-0.44 -2.44,-0.44 -1.4,0 -2.44,0.44 -1.04,0.44 -1.76,1.2 -0.72,0.76 -1.12,1.8 -0.4,1.04 -0.52,2.24 -0.08,0.72 -0.08,1.72 0,0.96 0.08,1.64 0.12,1.2 0.52,2.24 0.4,1.04 1.12,1.8 0.72,0.76 1.76,1.2 1.04,0.44 2.44,0.44 1.4,0 2.44,-0.44 1.04,-0.44 1.76,-1.2 0.72,-0.76 1.12,-1.8 0.4,-1.04 0.52,-2.24 z"
             style="font-style:normal;font-variant:normal;font-weight:normal;font-stretch:normal;font-size:medium;line-height:125%;font-family:Rubik;-inkscape-font-specification:Rubik;letter-spacing:0px;word-spacing:0px;fill:#000000;fill-opacity:1;stroke:none;stroke-width:1px;stroke-linecap:butt;stroke-linejoin:miter;stroke-opacity:1"
             id="path4404"
             inkscape:connector-curvature="0" />
          <path
             inkscape:export-ydpi="90"
             inkscape:export-xdpi="90"
             d="m 236.64709,978.44828 q 0.16,1.6 0.68,2.72 0.56,1.12 1.32,1.84 0.8,0.72 1.76,1.08 0.96,0.32 1.96,0.32 1.92,0 3.28,-0.72 1.36,-0.72 2.12,-2.4 0.28,-0.64 0.56,-0.84 0.32,-0.24 0.76,-0.24 l 1.2,0 q 0.44,0 0.76,0.32 0.36,0.32 0.32,0.76 -0.04,0.96 -0.64,2.12 -0.56,1.12 -1.72,2.12 -1.12,0.96 -2.8,1.64 -1.64,0.68 -3.84,0.68 -2.2,0 -3.92,-0.72 -1.68,-0.72 -2.88,-1.96 -1.16,-1.24 -1.84,-2.92 -0.64,-1.68 -0.72,-3.6 -0.04,-0.64 -0.08,-1.56 0,-0.96 0.08,-1.64 0.16,-1.92 0.8,-3.6 0.68,-1.68 1.84,-2.92 1.16,-1.24 2.84,-1.96 1.68,-0.72 3.88,-0.72 2.2,0 3.84,0.68 1.68,0.68 2.8,1.68 1.16,0.96 1.72,2.12 0.6,1.12 0.64,2.08 0.04,0.44 -0.32,0.76 -0.32,0.32 -0.76,0.32 l -1.2,0 q -0.44,0 -0.76,-0.2 -0.28,-0.24 -0.56,-0.88 -0.76,-1.68 -2.12,-2.4 -1.36,-0.72 -3.28,-0.72 -1,0 -2,0.36 -0.96,0.32 -1.76,1.04 -0.76,0.72 -1.32,1.84 -0.52,1.12 -0.64,2.72 -0.12,1.48 0,2.8 z"
             style="font-style:normal;font-variant:normal;font-weight:normal;font-stretch:normal;font-size:medium;line-height:125%;font-family:Rubik;-inkscape-font-specification:Rubik;letter-spacing:0px;word-spacing:0px;fill:#000000;fill-opacity:1;stroke:none;stroke-width:1px;stroke-linecap:butt;stroke-linejoin:miter;stroke-opacity:1"
             id="path4406"
             inkscape:connector-curvature="0" />
          <path
             inkscape:export-ydpi="90"
             inkscape:export-xdpi="90"
             d="m 259.79459,978.64828 0,7.72 q 0,0.44 -0.32,0.76 -0.32,0.32 -0.76,0.32 l -1.48,0 q -0.44,0 -0.76,-0.32 -0.32,-0.32 -0.32,-0.76 l 0,-26.24 q 0,-0.44 0.32,-0.76 0.32,-0.32 0.76,-0.32 l 1.48,0 q 0.44,0 0.76,0.32 0.32,0.32 0.32,0.76 l 0,13.24 7.8,-6.04 q 0.24,-0.2 0.6,-0.44 0.4,-0.24 0.96,-0.24 l 2,0 q 0.4,0 0.68,0.28 0.28,0.28 0.28,0.68 0,0.2 -0.08,0.4 -0.04,0.16 -0.36,0.4 l -9.64,7.52 10.64,9.8 q 0.24,0.24 0.32,0.4 0.08,0.16 0.08,0.36 0,0.4 -0.28,0.68 -0.28,0.28 -0.68,0.28 l -1.88,0 q -0.6,0 -1.04,-0.24 -0.4,-0.24 -0.6,-0.44 l -8.8,-8.12 z"
             style="font-style:normal;font-variant:normal;font-weight:normal;font-stretch:normal;font-size:medium;line-height:125%;font-family:Rubik;-inkscape-font-specification:Rubik;letter-spacing:0px;word-spacing:0px;fill:#000000;fill-opacity:1;stroke:none;stroke-width:1px;stroke-linecap:butt;stroke-linejoin:miter;stroke-opacity:1"
             id="path4408"
             inkscape:connector-curvature="0" />
        </g>
        <path
           style="fill:none;fill-rule:evenodd;stroke:#000000;stroke-width:7.79350519;stroke-linecap:butt;stroke-linejoin:miter;stroke-miterlimit:4;stroke-dasharray:none;stroke-opacity:1"
           d="m 371.61654,321.92257 -48.98775,61.75039"
           id="path4553"
           inkscape:path-effect="#path-effect4555"
           inkscape:original-d="m 371.61654,321.92257 -48.98775,61.75039"
           inkscape:connector-curvature="0"
           sodipodi:nodetypes="cc" />
        <path
           inkscape:connector-curvature="0"
           inkscape:original-d="m 371.61654,321.92257 49.02751,61.75039"
           inkscape:path-effect="#path-effect4559"
           id="path4557"
           d="m 371.61654,321.92257 49.02751,61.75039"
           style="fill:none;fill-rule:evenodd;stroke:#000000;stroke-width:7.79350519;stroke-linecap:butt;stroke-linejoin:miter;stroke-miterlimit:4;stroke-dasharray:none;stroke-opacity:1"
           sodipodi:nodetypes="cc" />
        <path
           sodipodi:nodetypes="cc"
           style="fill:none;fill-rule:evenodd;stroke:#000000;stroke-width:7.79350519;stroke-linecap:butt;stroke-linejoin:miter;stroke-miterlimit:4;stroke-dasharray:none;stroke-opacity:1"
           d="m 371.61654,321.92257 115.82898,61.75039"
           id="path4561"
           inkscape:path-effect="#path-effect4563"
           inkscape:original-d="m 371.61654,321.92257 115.82898,61.75039"
           inkscape:connector-curvature="0" />
        <path
           sodipodi:nodetypes="ccccssssssscccccccccc"
           inkscape:connector-curvature="0"
           id="path4565"
           transform="translate(12.121831,-2.4093561e-7)"
           d="m 357.66016,318.48438 -98.67188,52.62109 c 2.1e-4,5.9e-4 -2e-4,10e-4 0,0.002 l -0.006,0.002 c -0.58978,-1.67724 -2.16302,-2.88282 -4.04687,-2.88282 l -24.73438,0 c -2.38915,0 -4.3125,1.92335 -4.3125,4.3125 l 0,24.73438 c 0,2.38915 1.92335,4.3125 4.3125,4.3125 l 24.73438,0 c 2.38915,0 4.3125,-1.92335 4.3125,-4.3125 l 0,-17.47266 102.08007,-54.43945 0.002,0 -3.66797,-6.87695 z m -125.17774,56.33593 20.04805,0 0.12578,20.17188 -20.17383,0 z"
           style="color:#000000;font-style:normal;font-variant:normal;font-weight:normal;font-stretch:normal;font-size:medium;line-height:normal;font-family:sans-serif;text-indent:0;text-align:start;text-decoration:none;text-decoration-line:none;text-decoration-style:solid;text-decoration-color:#000000;letter-spacing:normal;word-spacing:normal;text-transform:none;direction:ltr;block-progression:tb;writing-mode:lr-tb;baseline-shift:baseline;text-anchor:start;white-space:normal;clip-rule:nonzero;display:inline;overflow:visible;visibility:visible;opacity:1;isolation:auto;mix-blend-mode:normal;color-interpolation:sRGB;color-interpolation-filters:linearRGB;solid-color:#000000;solid-opacity:1;fill:#000000;fill-opacity:1;fill-rule:evenodd;stroke:none;stroke-width:7.79350519;stroke-linecap:butt;stroke-linejoin:miter;stroke-miterlimit:4;stroke-dasharray:none;stroke-dashoffset:0;stroke-opacity:1;color-rendering:auto;image-rendering:auto;shape-rendering:auto;text-rendering:auto;enable-background:accumulate" />
        <rect
           style="color:#000000;display:inline;overflow:visible;visibility:visible;opacity:0.98999999;fill:#000000;fill-opacity:1;fill-rule:nonzero;stroke:none;stroke-width:3.75;stroke-linecap:round;stroke-linejoin:bevel;stroke-miterlimit:4;stroke-dasharray:none;stroke-dashoffset:0;stroke-opacity:1;marker:none;enable-background:accumulate"
           id="rect4418"
           width="66.447723"
           height="66.447723"
           x="338.4538"
           y="265.95493"
           rx="4.2469006"
           ry="4.2469006" />
        <rect
           y="274.746"
           x="347.14539"
           height="48.965046"
           width="48.965046"
           id="rect4420"
           style="color:#000000;display:inline;overflow:visible;visibility:visible;opacity:0.98999999;fill:#ffffff;fill-opacity:1;fill-rule:nonzero;stroke:none;stroke-width:3.75;stroke-linecap:round;stroke-linejoin:bevel;stroke-miterlimit:4;stroke-dasharray:none;stroke-dashoffset:0;stroke-opacity:1;marker:none;enable-background:accumulate" />
        <rect
           ry="4.3125439"
           rx="4.3125439"
           style="color:#000000;display:inline;overflow:visible;visibility:visible;opacity:0.98999999;fill:#000000;fill-opacity:1;fill-rule:nonzero;stroke:none;stroke-width:3.75;stroke-linecap:round;stroke-linejoin:bevel;stroke-miterlimit:4;stroke-dasharray:none;stroke-dashoffset:0;stroke-opacity:1;marker:none;enable-background:accumulate"
           id="rect4537"
           width="33.35952"
           height="33.35952"
           x="313.82401"
           y="368.22681" />
        <rect
           y="374.82053"
           x="320.41772"
           height="20.172174"
           width="20.172174"
           id="rect4539"
           style="color:#000000;display:inline;overflow:visible;visibility:visible;opacity:0.98999999;fill:#ffffff;fill-opacity:1;fill-rule:nonzero;stroke:none;stroke-width:3.75;stroke-linecap:round;stroke-linejoin:bevel;stroke-miterlimit:4;stroke-dasharray:none;stroke-dashoffset:0;stroke-opacity:1;marker:none;enable-background:accumulate" />
        <rect
           y="368.22681"
           x="471.367"
           height="33.35952"
           width="33.35952"
           id="rect4541"
           style="color:#000000;display:inline;overflow:visible;visibility:visible;opacity:0.98999999;fill:#000000;fill-opacity:1;fill-rule:nonzero;stroke:none;stroke-width:3.75;stroke-linecap:round;stroke-linejoin:bevel;stroke-miterlimit:4;stroke-dasharray:none;stroke-dashoffset:0;stroke-opacity:1;marker:none;enable-background:accumulate"
           rx="4.3125439"
           ry="4.3125439" />
        <rect
           style="color:#000000;display:inline;overflow:visible;visibility:visible;opacity:0.98999999;fill:#ffffff;fill-opacity:1;fill-rule:nonzero;stroke:none;stroke-width:3.75;stroke-linecap:round;stroke-linejoin:bevel;stroke-miterlimit:4;stroke-dasharray:none;stroke-dashoffset:0;stroke-opacity:1;marker:none;enable-background:accumulate"
           id="rect4543"
           width="20.172174"
           height="20.172174"
           x="477.96072"
           y="374.82053" />
        <rect
           y="368.22681"
           x="396.10513"
           height="33.35952"
           width="33.35952"
           id="rect4547"
           style="color:#000000;display:inline;overflow:visible;visibility:visible;opacity:0.98999999;fill:#000000;fill-opacity:1;fill-rule:nonzero;stroke:none;stroke-width:3.75;stroke-linecap:round;stroke-linejoin:bevel;stroke-miterlimit:4;stroke-dasharray:none;stroke-dashoffset:0;stroke-opacity:1;marker:none;enable-background:accumulate"
           rx="4.3125439"
           ry="4.3125439" />
        <rect
           style="color:#000000;display:inline;overflow:visible;visibility:visible;opacity:0.98999999;fill:#ffffff;fill-opacity:1;fill-rule:nonzero;stroke:none;stroke-width:3.75;stroke-linecap:round;stroke-linejoin:bevel;stroke-miterlimit:4;stroke-dasharray:none;stroke-dashoffset:0;stroke-opacity:1;marker:none;enable-background:accumulate"
           id="rect4549"
           width="20.172174"
           height="20.172174"
           x="402.69885"
           y="374.82053" />
      </g>
      <g
         id="g5241"
         transform="matrix(1.9356144,0,0,1.9356144,-35.649733,-1667.4605)">
        <path
           inkscape:export-ydpi="90"
           inkscape:export-xdpi="90"
           d="m 144.25959,987.44828 q -0.52,0 -0.8,-0.32 -0.28,-0.32 -0.44,-0.68 l -7.96,-18.56 q -0.04,-0.12 -0.04,-0.28 0,-0.4 0.28,-0.68 0.28,-0.28 0.68,-0.28 l 1.48,0 q 0.6,0 0.88,0.32 0.32,0.32 0.44,0.64 l 6.2,14.52 6.2,-14.52 q 0.12,-0.32 0.4,-0.64 0.28,-0.32 0.76,-0.32 l 1.64,0 q 0.4,0 0.68,0.28 0.28,0.28 0.28,0.68 0,0.16 -0.04,0.28 l -7.96,18.56 q -0.16,0.36 -0.44,0.68 -0.24,0.32 -0.76,0.32 l -1.48,0 z"
           style="font-style:normal;font-variant:normal;font-weight:normal;font-stretch:normal;font-size:medium;line-height:125%;font-family:Rubik;-inkscape-font-specification:Rubik;letter-spacing:0px;word-spacing:0px;fill:#000000;fill-opacity:1;stroke:none;stroke-width:1px;stroke-linecap:butt;stroke-linejoin:miter;stroke-opacity:1"
           id="path5243"
           inkscape:connector-curvature="0" />
        <path
           inkscape:export-ydpi="90"
           inkscape:export-xdpi="90"
           id="path5245"
           d="m 162.84147,986.36828 q 0,0.44 -0.32,0.76 -0.32,0.32 -0.76,0.32 l -1.48,0 q -0.44,0 -0.76,-0.32 -0.32,-0.32 -0.32,-0.76 l 0,-18.64 q 0,-0.44 0.32,-0.76 0.32,-0.32 0.76,-0.32 l 1.48,0 q 0.44,0 0.76,0.32 0.32,0.32 0.32,0.76 l 0,18.64 z"
           style="font-style:normal;font-variant:normal;font-weight:normal;font-stretch:normal;font-size:medium;line-height:125%;font-family:Rubik;-inkscape-font-specification:Rubik;letter-spacing:0px;word-spacing:0px;fill:#000000;fill-opacity:1;stroke:none;stroke-width:1px;stroke-linecap:butt;stroke-linejoin:miter;stroke-opacity:1"
           inkscape:connector-curvature="0" />
        <path
           inkscape:export-ydpi="90"
           inkscape:export-xdpi="90"
           id="path5247"
           d="m 163.24147,962.40828 q 0,0.44 -0.32,0.76 -0.32,0.32 -0.76,0.32 l -2.28,0 q -0.44,0 -0.76,-0.32 -0.32,-0.32 -0.32,-0.76 l 0,-2.28 q 0,-0.44 0.32,-0.76 0.32,-0.32 0.76,-0.32 l 2.28,0 q 0.44,0 0.76,0.32 0.32,0.32 0.32,0.76 l 0,2.28 z"
           style="font-style:normal;font-variant:normal;font-weight:normal;font-stretch:normal;font-size:medium;line-height:125%;font-family:Rubik;-inkscape-font-specification:Rubik;letter-spacing:0px;word-spacing:0px;fill:#000000;fill-opacity:1;stroke:none;stroke-width:1px;stroke-linecap:butt;stroke-linejoin:miter;stroke-opacity:1"
           inkscape:connector-curvature="0" />
        <path
           inkscape:export-ydpi="90"
           inkscape:export-xdpi="90"
           d="m 167.33084,982.20828 q 0,-1.6 0.64,-2.8 0.64,-1.2 1.76,-2.04 1.12,-0.84 2.6,-1.36 1.52,-0.52 3.2,-0.8 l 5.64,-0.92 0,-0.52 q 0,-2.04 -1.36,-3.04 -1.32,-1.04 -3.32,-1.04 -1.76,0 -2.68,0.64 -0.88,0.64 -1.52,1.52 -0.24,0.32 -0.52,0.44 -0.28,0.12 -0.76,0.12 l -1.2,0 q -0.44,0 -0.8,-0.32 -0.32,-0.32 -0.28,-0.76 0.08,-0.88 0.68,-1.8 0.64,-0.92 1.68,-1.64 1.08,-0.72 2.44,-1.16 1.4,-0.48 2.96,-0.48 1.8,0 3.32,0.52 1.56,0.52 2.64,1.52 1.12,1 1.72,2.48 0.64,1.48 0.64,3.4 l 0,12.2 q 0,0.44 -0.32,0.76 -0.32,0.32 -0.76,0.32 l -1.48,0 q -0.44,0 -0.76,-0.32 -0.32,-0.32 -0.32,-0.76 l 0,-1.64 q -0.36,0.76 -1.12,1.36 -0.76,0.56 -1.76,0.96 -0.96,0.4 -2.04,0.6 -1.04,0.2 -1.96,0.2 -1.56,0 -2.88,-0.44 -1.28,-0.44 -2.2,-1.16 -0.88,-0.76 -1.4,-1.8 -0.48,-1.04 -0.48,-2.24 z m 7.36,2.2 q 1.44,0 2.64,-0.44 1.2,-0.44 2.04,-1.2 0.88,-0.8 1.32,-1.88 0.48,-1.08 0.48,-2.4 l 0,-1 -4.72,0.76 q -2.52,0.4 -4,1.28 -1.48,0.88 -1.48,2.28 0,0.44 0.2,0.88 0.2,0.44 0.64,0.84 0.44,0.4 1.12,0.64 0.72,0.24 1.76,0.24 z"
           style="font-style:normal;font-variant:normal;font-weight:normal;font-stretch:normal;font-size:medium;line-height:125%;font-family:Rubik;-inkscape-font-specification:Rubik;letter-spacing:0px;word-spacing:0px;fill:#000000;fill-opacity:1;stroke:none;stroke-width:1px;stroke-linecap:butt;stroke-linejoin:miter;stroke-opacity:1"
           id="path5249"
           inkscape:connector-curvature="0" />
        <path
           inkscape:export-ydpi="90"
           inkscape:export-xdpi="90"
           d="m 202.52584,981.68828 q 0,-0.76 -0.44,-1.24 -0.4,-0.52 -1.24,-0.88 -0.84,-0.36 -2.16,-0.68 -1.28,-0.32 -3,-0.68 -3.24,-0.68 -4.56,-2.24 -1.28,-1.6 -1.28,-3.72 0,-1.2 0.48,-2.28 0.48,-1.08 1.44,-1.92 0.96,-0.84 2.4,-1.32 1.48,-0.48 3.44,-0.48 1.96,0 3.4,0.44 1.48,0.44 2.48,1.12 1,0.68 1.52,1.48 0.52,0.76 0.56,1.48 0.04,0.44 -0.32,0.76 -0.32,0.32 -0.76,0.32 l -1.32,0 q -0.24,0 -0.6,-0.08 -0.32,-0.12 -0.6,-0.48 -0.52,-0.68 -1.56,-1.12 -1,-0.48 -2.8,-0.48 -1.84,0 -3,0.68 -1.12,0.68 -1.12,1.88 0,0.76 0.32,1.24 0.32,0.44 1.04,0.8 0.72,0.32 1.88,0.6 1.2,0.28 2.96,0.68 1.84,0.4 3.08,1.04 1.24,0.6 2,1.4 0.76,0.76 1.08,1.72 0.32,0.92 0.32,1.96 0,1.2 -0.6,2.32 -0.56,1.12 -1.64,1.96 -1.08,0.84 -2.64,1.36 -1.52,0.52 -3.48,0.52 -1.96,0 -3.48,-0.48 -1.52,-0.48 -2.6,-1.16 -1.08,-0.72 -1.68,-1.52 -0.56,-0.84 -0.6,-1.56 -0.04,-0.44 0.28,-0.76 0.32,-0.32 0.8,-0.32 l 1.44,0 q 0.24,0 0.56,0.08 0.32,0.04 0.6,0.44 0.64,0.88 1.76,1.36 1.12,0.48 2.92,0.48 0.88,0 1.72,-0.2 0.88,-0.2 1.52,-0.56 0.68,-0.36 1.08,-0.84 0.4,-0.52 0.4,-1.12 z"
           style="font-style:normal;font-variant:normal;font-weight:normal;font-stretch:normal;font-size:medium;line-height:125%;font-family:Rubik;-inkscape-font-specification:Rubik;letter-spacing:0px;word-spacing:0px;fill:#000000;fill-opacity:1;stroke:none;stroke-width:1px;stroke-linecap:butt;stroke-linejoin:miter;stroke-opacity:1"
           id="path5251"
           inkscape:connector-curvature="0" />
        <path
           inkscape:export-ydpi="90"
           inkscape:export-xdpi="90"
           d="m 219.44022,966.24828 q 2.16,0 3.84,0.68 1.68,0.64 2.88,1.8 1.2,1.16 1.88,2.84 0.72,1.64 0.88,3.6 0.04,0.36 0.04,0.88 0,0.48 0,1.04 0,0.52 0,1.04 0,0.48 -0.04,0.8 -0.2,2 -0.88,3.64 -0.68,1.64 -1.88,2.8 -1.2,1.16 -2.88,1.84 -1.68,0.64 -3.84,0.64 -2.16,0 -3.84,-0.64 -1.68,-0.68 -2.88,-1.84 -1.2,-1.16 -1.92,-2.8 -0.68,-1.64 -0.84,-3.64 -0.04,-0.32 -0.08,-0.8 0,-0.52 0,-1.04 0,-0.56 0,-1.04 0.04,-0.52 0.08,-0.88 0.16,-1.96 0.84,-3.6 0.72,-1.68 1.92,-2.84 1.2,-1.16 2.88,-1.8 1.68,-0.68 3.84,-0.68 z m 5.84,12.48 q 0.08,-0.68 0.08,-1.64 0,-1 -0.08,-1.72 -0.12,-1.2 -0.52,-2.24 -0.4,-1.04 -1.12,-1.8 -0.72,-0.76 -1.76,-1.2 -1.04,-0.44 -2.44,-0.44 -1.4,0 -2.44,0.44 -1.04,0.44 -1.76,1.2 -0.72,0.76 -1.12,1.8 -0.4,1.04 -0.52,2.24 -0.08,0.72 -0.08,1.72 0,0.96 0.08,1.64 0.12,1.2 0.52,2.24 0.4,1.04 1.12,1.8 0.72,0.76 1.76,1.2 1.04,0.44 2.44,0.44 1.4,0 2.44,-0.44 1.04,-0.44 1.76,-1.2 0.72,-0.76 1.12,-1.8 0.4,-1.04 0.52,-2.24 z"
           style="font-style:normal;font-variant:normal;font-weight:normal;font-stretch:normal;font-size:medium;line-height:125%;font-family:Rubik;-inkscape-font-specification:Rubik;letter-spacing:0px;word-spacing:0px;fill:#000000;fill-opacity:1;stroke:none;stroke-width:1px;stroke-linecap:butt;stroke-linejoin:miter;stroke-opacity:1"
           id="path5253"
           inkscape:connector-curvature="0" />
        <path
           inkscape:export-ydpi="90"
           inkscape:export-xdpi="90"
           d="m 236.64709,978.44828 q 0.16,1.6 0.68,2.72 0.56,1.12 1.32,1.84 0.8,0.72 1.76,1.08 0.96,0.32 1.96,0.32 1.92,0 3.28,-0.72 1.36,-0.72 2.12,-2.4 0.28,-0.64 0.56,-0.84 0.32,-0.24 0.76,-0.24 l 1.2,0 q 0.44,0 0.76,0.32 0.36,0.32 0.32,0.76 -0.04,0.96 -0.64,2.12 -0.56,1.12 -1.72,2.12 -1.12,0.96 -2.8,1.64 -1.64,0.68 -3.84,0.68 -2.2,0 -3.92,-0.72 -1.68,-0.72 -2.88,-1.96 -1.16,-1.24 -1.84,-2.92 -0.64,-1.68 -0.72,-3.6 -0.04,-0.64 -0.08,-1.56 0,-0.96 0.08,-1.64 0.16,-1.92 0.8,-3.6 0.68,-1.68 1.84,-2.92 1.16,-1.24 2.84,-1.96 1.68,-0.72 3.88,-0.72 2.2,0 3.84,0.68 1.68,0.68 2.8,1.68 1.16,0.96 1.72,2.12 0.6,1.12 0.64,2.08 0.04,0.44 -0.32,0.76 -0.32,0.32 -0.76,0.32 l -1.2,0 q -0.44,0 -0.76,-0.2 -0.28,-0.24 -0.56,-0.88 -0.76,-1.68 -2.12,-2.4 -1.36,-0.72 -3.28,-0.72 -1,0 -2,0.36 -0.96,0.32 -1.76,1.04 -0.76,0.72 -1.32,1.84 -0.52,1.12 -0.64,2.72 -0.12,1.48 0,2.8 z"
           style="font-style:normal;font-variant:normal;font-weight:normal;font-stretch:normal;font-size:medium;line-height:125%;font-family:Rubik;-inkscape-font-specification:Rubik;letter-spacing:0px;word-spacing:0px;fill:#000000;fill-opacity:1;stroke:none;stroke-width:1px;stroke-linecap:butt;stroke-linejoin:miter;stroke-opacity:1"
           id="path5255"
           inkscape:connector-curvature="0" />
        <path
           inkscape:export-ydpi="90"
           inkscape:export-xdpi="90"
           d="m 259.79459,978.64828 0,7.72 q 0,0.44 -0.32,0.76 -0.32,0.32 -0.76,0.32 l -1.48,0 q -0.44,0 -0.76,-0.32 -0.32,-0.32 -0.32,-0.76 l 0,-26.24 q 0,-0.44 0.32,-0.76 0.32,-0.32 0.76,-0.32 l 1.48,0 q 0.44,0 0.76,0.32 0.32,0.32 0.32,0.76 l 0,13.24 7.8,-6.04 q 0.24,-0.2 0.6,-0.44 0.4,-0.24 0.96,-0.24 l 2,0 q 0.4,0 0.68,0.28 0.28,0.28 0.28,0.68 0,0.2 -0.08,0.4 -0.04,0.16 -0.36,0.4 l -9.64,7.52 10.64,9.8 q 0.24,0.24 0.32,0.4 0.08,0.16 0.08,0.36 0,0.4 -0.28,0.68 -0.28,0.28 -0.68,0.28 l -1.88,0 q -0.6,0 -1.04,-0.24 -0.4,-0.24 -0.6,-0.44 l -8.8,-8.12 z"
           style="font-style:normal;font-variant:normal;font-weight:normal;font-stretch:normal;font-size:medium;line-height:125%;font-family:Rubik;-inkscape-font-specification:Rubik;letter-spacing:0px;word-spacing:0px;fill:#000000;fill-opacity:1;stroke:none;stroke-width:1px;stroke-linecap:butt;stroke-linejoin:miter;stroke-opacity:1"
           id="path5257"
           inkscape:connector-curvature="0" />
      </g>
      <path
         sodipodi:nodetypes="sssscccccccccccsccssssscccccsssssssccccccccssssssssccccccccccccccssssssssc"
         inkscape:connector-curvature="0"
         id="path5259"
         d="m 330.57812,265.95508 c -2.35277,0 -4.24609,1.8933 -4.24609,4.24609 l 0,57.95508 c 0,2.35278 1.89335,4.24609 4.24609,4.24609 l 15.62891,0 c 17.68189,-4.68463 37.78125,-8.6914 -11.18359,-8.6914 l 0,-48.96485 48.96484,0 0,48.96485 c -48.96484,0 -22.1373,6.0352 -27.83398,8.6914 l 6.68554,0 28.44336,35.82422 9.95118,0 -27.03321,-34.04687 85.04492,45.33789 0,-6.97852 c 0,-0.59445 0.12025,-1.1595 0.33594,-1.67383 l -72.14648,-38.46289 1.09765,0 c 2.35279,0 4.2461,-1.89331 4.2461,-4.24609 l 0,-57.95508 c 0,-2.35279 -1.89331,-4.24609 -4.2461,-4.24609 z m 129.00391,104.91015 c 8.74046,1.81219 17.58009,2.87126 26.42969,3.95508 l 0,20.17188 -20.17188,0 c -1.26505,-16.17506 2.74518,-10.49533 -6.59375,-15.47461 l 0,17.75586 c 0,2.38915 1.92335,4.3125 4.3125,4.3125 l 24.73438,0 c 2.38915,0 4.3125,-1.92335 4.3125,-4.3125 l 0,-24.73438 c 0,-2.38915 -1.92335,-4.3125 -4.3125,-4.3125 l -24.73438,0 c -1.79469,0 -3.32537,1.08589 -3.97656,2.63867 z m -58.34765,-2.63867 c 3.11369,4.58739 4.27206,6.59375 9.51562,6.59375 l 0,5.39063 c 0.3293,3.84978 -0.0548,10.15807 0,14.78125 l -20.17383,0 0,-20.17188 c 9.73169,0.0868 4.9568,-1.24031 0.70703,-6.59375 l -2.98828,0 c -2.38915,0 -4.3125,1.92335 -4.3125,4.3125 l 0,24.73438 c 0,2.38915 1.92335,4.3125 4.3125,4.3125 l 24.73633,0 c 2.38915,0 4.3125,-1.92335 4.3125,-4.3125 l 0,-24.73438 c 0,-2.38915 -1.92335,-4.3125 -4.3125,-4.3125 z m -45.08008,-35.82422 -9.94727,0 -28.41992,35.82422 9.94922,0 z m -28.41797,35.82422 -5.23047,6.59375 5.96289,0 0,20.17188 -20.17383,0 c -0.37687,-8.71267 0.0826,-12.63933 0,-20.17188 l 4.26172,0 5.23047,-6.59375 -11.77149,0 c -2.38913,0 -4.3125,1.92335 -4.3125,4.3125 l 0,24.73438 c 0,2.38915 1.92337,4.3125 4.3125,4.3125 l 24.73438,0 c 2.38915,0 4.3125,-1.92335 4.3125,-4.3125 l 0,-24.73438 c 0,-2.38915 -1.92335,-4.3125 -4.3125,-4.3125 z"
         style="color:#000000;font-style:normal;font-variant:normal;font-weight:normal;font-stretch:normal;font-size:medium;line-height:normal;font-family:sans-serif;text-indent:0;text-align:start;text-decoration:none;text-decoration-line:none;text-decoration-style:solid;text-decoration-color:#000000;letter-spacing:normal;word-spacing:normal;text-transform:none;direction:ltr;block-progression:tb;writing-mode:lr-tb;baseline-shift:baseline;text-anchor:start;white-space:normal;clip-rule:nonzero;display:inline;overflow:visible;visibility:visible;opacity:1;isolation:auto;mix-blend-mode:normal;color-interpolation:sRGB;color-interpolation-filters:linearRGB;solid-color:#000000;solid-opacity:1;fill:#000000;fill-opacity:1;fill-rule:evenodd;stroke:none;stroke-width:7.79350519;stroke-linecap:butt;stroke-linejoin:miter;stroke-miterlimit:4;stroke-dasharray:none;stroke-dashoffset:0;stroke-opacity:1;color-rendering:auto;image-rendering:auto;shape-rendering:auto;text-rendering:auto;enable-background:accumulate" />
    </g>
    <rect
       style="color:#000000;display:inline;overflow:visible;visibility:visible;opacity:0.98999999;fill:#000000;fill-opacity:1;fill-rule:nonzero;stroke:none;stroke-width:0;stroke-linecap:round;stroke-linejoin:bevel;stroke-miterlimit:4;stroke-dasharray:none;stroke-dashoffset:0;stroke-opacity:1;marker:none;enable-background:accumulate"
       id="rect5732"
       width="753.32867"
       height="524.09583"
       x="-2.0203052"
       y="536.3476" />
    <g
       transform="matrix(1.9356144,0,0,1.9356144,-35.649734,-1667.4605)"
       id="g5811">
      <path
         inkscape:connector-curvature="0"
         id="path5813"
         style="font-style:normal;font-variant:normal;font-weight:normal;font-stretch:normal;font-size:medium;line-height:125%;font-family:Rubik;-inkscape-font-specification:Rubik;letter-spacing:0px;word-spacing:0px;fill:#000000;fill-opacity:1;stroke:none;stroke-width:1px;stroke-linecap:butt;stroke-linejoin:miter;stroke-opacity:1"
         d="m 144.25959,987.44828 q -0.52,0 -0.8,-0.32 -0.28,-0.32 -0.44,-0.68 l -7.96,-18.56 q -0.04,-0.12 -0.04,-0.28 0,-0.4 0.28,-0.68 0.28,-0.28 0.68,-0.28 l 1.48,0 q 0.6,0 0.88,0.32 0.32,0.32 0.44,0.64 l 6.2,14.52 6.2,-14.52 q 0.12,-0.32 0.4,-0.64 0.28,-0.32 0.76,-0.32 l 1.64,0 q 0.4,0 0.68,0.28 0.28,0.28 0.28,0.68 0,0.16 -0.04,0.28 l -7.96,18.56 q -0.16,0.36 -0.44,0.68 -0.24,0.32 -0.76,0.32 l -1.48,0 z"
         inkscape:export-xdpi="90"
         inkscape:export-ydpi="90" />
      <path
         inkscape:connector-curvature="0"
         style="font-style:normal;font-variant:normal;font-weight:normal;font-stretch:normal;font-size:medium;line-height:125%;font-family:Rubik;-inkscape-font-specification:Rubik;letter-spacing:0px;word-spacing:0px;fill:#000000;fill-opacity:1;stroke:none;stroke-width:1px;stroke-linecap:butt;stroke-linejoin:miter;stroke-opacity:1"
         d="m 162.84147,986.36828 q 0,0.44 -0.32,0.76 -0.32,0.32 -0.76,0.32 l -1.48,0 q -0.44,0 -0.76,-0.32 -0.32,-0.32 -0.32,-0.76 l 0,-18.64 q 0,-0.44 0.32,-0.76 0.32,-0.32 0.76,-0.32 l 1.48,0 q 0.44,0 0.76,0.32 0.32,0.32 0.32,0.76 l 0,18.64 z"
         id="path5815"
         inkscape:export-xdpi="90"
         inkscape:export-ydpi="90" />
      <path
         inkscape:connector-curvature="0"
         style="font-style:normal;font-variant:normal;font-weight:normal;font-stretch:normal;font-size:medium;line-height:125%;font-family:Rubik;-inkscape-font-specification:Rubik;letter-spacing:0px;word-spacing:0px;fill:#000000;fill-opacity:1;stroke:none;stroke-width:1px;stroke-linecap:butt;stroke-linejoin:miter;stroke-opacity:1"
         d="m 163.24147,962.40828 q 0,0.44 -0.32,0.76 -0.32,0.32 -0.76,0.32 l -2.28,0 q -0.44,0 -0.76,-0.32 -0.32,-0.32 -0.32,-0.76 l 0,-2.28 q 0,-0.44 0.32,-0.76 0.32,-0.32 0.76,-0.32 l 2.28,0 q 0.44,0 0.76,0.32 0.32,0.32 0.32,0.76 l 0,2.28 z"
         id="path5817"
         inkscape:export-xdpi="90"
         inkscape:export-ydpi="90" />
      <path
         inkscape:connector-curvature="0"
         id="path5819"
         style="font-style:normal;font-variant:normal;font-weight:normal;font-stretch:normal;font-size:medium;line-height:125%;font-family:Rubik;-inkscape-font-specification:Rubik;letter-spacing:0px;word-spacing:0px;fill:#000000;fill-opacity:1;stroke:none;stroke-width:1px;stroke-linecap:butt;stroke-linejoin:miter;stroke-opacity:1"
         d="m 167.33084,982.20828 q 0,-1.6 0.64,-2.8 0.64,-1.2 1.76,-2.04 1.12,-0.84 2.6,-1.36 1.52,-0.52 3.2,-0.8 l 5.64,-0.92 0,-0.52 q 0,-2.04 -1.36,-3.04 -1.32,-1.04 -3.32,-1.04 -1.76,0 -2.68,0.64 -0.88,0.64 -1.52,1.52 -0.24,0.32 -0.52,0.44 -0.28,0.12 -0.76,0.12 l -1.2,0 q -0.44,0 -0.8,-0.32 -0.32,-0.32 -0.28,-0.76 0.08,-0.88 0.68,-1.8 0.64,-0.92 1.68,-1.64 1.08,-0.72 2.44,-1.16 1.4,-0.48 2.96,-0.48 1.8,0 3.32,0.52 1.56,0.52 2.64,1.52 1.12,1 1.72,2.48 0.64,1.48 0.64,3.4 l 0,12.2 q 0,0.44 -0.32,0.76 -0.32,0.32 -0.76,0.32 l -1.48,0 q -0.44,0 -0.76,-0.32 -0.32,-0.32 -0.32,-0.76 l 0,-1.64 q -0.36,0.76 -1.12,1.36 -0.76,0.56 -1.76,0.96 -0.96,0.4 -2.04,0.6 -1.04,0.2 -1.96,0.2 -1.56,0 -2.88,-0.44 -1.28,-0.44 -2.2,-1.16 -0.88,-0.76 -1.4,-1.8 -0.48,-1.04 -0.48,-2.24 z m 7.36,2.2 q 1.44,0 2.64,-0.44 1.2,-0.44 2.04,-1.2 0.88,-0.8 1.32,-1.88 0.48,-1.08 0.48,-2.4 l 0,-1 -4.72,0.76 q -2.52,0.4 -4,1.28 -1.48,0.88 -1.48,2.28 0,0.44 0.2,0.88 0.2,0.44 0.64,0.84 0.44,0.4 1.12,0.64 0.72,0.24 1.76,0.24 z"
         inkscape:export-xdpi="90"
         inkscape:export-ydpi="90" />
      <path
         inkscape:connector-curvature="0"
         id="path5821"
         style="font-style:normal;font-variant:normal;font-weight:normal;font-stretch:normal;font-size:medium;line-height:125%;font-family:Rubik;-inkscape-font-specification:Rubik;letter-spacing:0px;word-spacing:0px;fill:#000000;fill-opacity:1;stroke:none;stroke-width:1px;stroke-linecap:butt;stroke-linejoin:miter;stroke-opacity:1"
         d="m 202.52584,981.68828 q 0,-0.76 -0.44,-1.24 -0.4,-0.52 -1.24,-0.88 -0.84,-0.36 -2.16,-0.68 -1.28,-0.32 -3,-0.68 -3.24,-0.68 -4.56,-2.24 -1.28,-1.6 -1.28,-3.72 0,-1.2 0.48,-2.28 0.48,-1.08 1.44,-1.92 0.96,-0.84 2.4,-1.32 1.48,-0.48 3.44,-0.48 1.96,0 3.4,0.44 1.48,0.44 2.48,1.12 1,0.68 1.52,1.48 0.52,0.76 0.56,1.48 0.04,0.44 -0.32,0.76 -0.32,0.32 -0.76,0.32 l -1.32,0 q -0.24,0 -0.6,-0.08 -0.32,-0.12 -0.6,-0.48 -0.52,-0.68 -1.56,-1.12 -1,-0.48 -2.8,-0.48 -1.84,0 -3,0.68 -1.12,0.68 -1.12,1.88 0,0.76 0.32,1.24 0.32,0.44 1.04,0.8 0.72,0.32 1.88,0.6 1.2,0.28 2.96,0.68 1.84,0.4 3.08,1.04 1.24,0.6 2,1.4 0.76,0.76 1.08,1.72 0.32,0.92 0.32,1.96 0,1.2 -0.6,2.32 -0.56,1.12 -1.64,1.96 -1.08,0.84 -2.64,1.36 -1.52,0.52 -3.48,0.52 -1.96,0 -3.48,-0.48 -1.52,-0.48 -2.6,-1.16 -1.08,-0.72 -1.68,-1.52 -0.56,-0.84 -0.6,-1.56 -0.04,-0.44 0.28,-0.76 0.32,-0.32 0.8,-0.32 l 1.44,0 q 0.24,0 0.56,0.08 0.32,0.04 0.6,0.44 0.64,0.88 1.76,1.36 1.12,0.48 2.92,0.48 0.88,0 1.72,-0.2 0.88,-0.2 1.52,-0.56 0.68,-0.36 1.08,-0.84 0.4,-0.52 0.4,-1.12 z"
         inkscape:export-xdpi="90"
         inkscape:export-ydpi="90" />
      <path
         inkscape:connector-curvature="0"
         id="path5823"
         style="font-style:normal;font-variant:normal;font-weight:normal;font-stretch:normal;font-size:medium;line-height:125%;font-family:Rubik;-inkscape-font-specification:Rubik;letter-spacing:0px;word-spacing:0px;fill:#000000;fill-opacity:1;stroke:none;stroke-width:1px;stroke-linecap:butt;stroke-linejoin:miter;stroke-opacity:1"
         d="m 219.44022,966.24828 q 2.16,0 3.84,0.68 1.68,0.64 2.88,1.8 1.2,1.16 1.88,2.84 0.72,1.64 0.88,3.6 0.04,0.36 0.04,0.88 0,0.48 0,1.04 0,0.52 0,1.04 0,0.48 -0.04,0.8 -0.2,2 -0.88,3.64 -0.68,1.64 -1.88,2.8 -1.2,1.16 -2.88,1.84 -1.68,0.64 -3.84,0.64 -2.16,0 -3.84,-0.64 -1.68,-0.68 -2.88,-1.84 -1.2,-1.16 -1.92,-2.8 -0.68,-1.64 -0.84,-3.64 -0.04,-0.32 -0.08,-0.8 0,-0.52 0,-1.04 0,-0.56 0,-1.04 0.04,-0.52 0.08,-0.88 0.16,-1.96 0.84,-3.6 0.72,-1.68 1.92,-2.84 1.2,-1.16 2.88,-1.8 1.68,-0.68 3.84,-0.68 z m 5.84,12.48 q 0.08,-0.68 0.08,-1.64 0,-1 -0.08,-1.72 -0.12,-1.2 -0.52,-2.24 -0.4,-1.04 -1.12,-1.8 -0.72,-0.76 -1.76,-1.2 -1.04,-0.44 -2.44,-0.44 -1.4,0 -2.44,0.44 -1.04,0.44 -1.76,1.2 -0.72,0.76 -1.12,1.8 -0.4,1.04 -0.52,2.24 -0.08,0.72 -0.08,1.72 0,0.96 0.08,1.64 0.12,1.2 0.52,2.24 0.4,1.04 1.12,1.8 0.72,0.76 1.76,1.2 1.04,0.44 2.44,0.44 1.4,0 2.44,-0.44 1.04,-0.44 1.76,-1.2 0.72,-0.76 1.12,-1.8 0.4,-1.04 0.52,-2.24 z"
         inkscape:export-xdpi="90"
         inkscape:export-ydpi="90" />
      <path
         inkscape:connector-curvature="0"
         id="path5825"
         style="font-style:normal;font-variant:normal;font-weight:normal;font-stretch:normal;font-size:medium;line-height:125%;font-family:Rubik;-inkscape-font-specification:Rubik;letter-spacing:0px;word-spacing:0px;fill:#000000;fill-opacity:1;stroke:none;stroke-width:1px;stroke-linecap:butt;stroke-linejoin:miter;stroke-opacity:1"
         d="m 236.64709,978.44828 q 0.16,1.6 0.68,2.72 0.56,1.12 1.32,1.84 0.8,0.72 1.76,1.08 0.96,0.32 1.96,0.32 1.92,0 3.28,-0.72 1.36,-0.72 2.12,-2.4 0.28,-0.64 0.56,-0.84 0.32,-0.24 0.76,-0.24 l 1.2,0 q 0.44,0 0.76,0.32 0.36,0.32 0.32,0.76 -0.04,0.96 -0.64,2.12 -0.56,1.12 -1.72,2.12 -1.12,0.96 -2.8,1.64 -1.64,0.68 -3.84,0.68 -2.2,0 -3.92,-0.72 -1.68,-0.72 -2.88,-1.96 -1.16,-1.24 -1.84,-2.92 -0.64,-1.68 -0.72,-3.6 -0.04,-0.64 -0.08,-1.56 0,-0.96 0.08,-1.64 0.16,-1.92 0.8,-3.6 0.68,-1.68 1.84,-2.92 1.16,-1.24 2.84,-1.96 1.68,-0.72 3.88,-0.72 2.2,0 3.84,0.68 1.68,0.68 2.8,1.68 1.16,0.96 1.72,2.12 0.6,1.12 0.64,2.08 0.04,0.44 -0.32,0.76 -0.32,0.32 -0.76,0.32 l -1.2,0 q -0.44,0 -0.76,-0.2 -0.28,-0.24 -0.56,-0.88 -0.76,-1.68 -2.12,-2.4 -1.36,-0.72 -3.28,-0.72 -1,0 -2,0.36 -0.96,0.32 -1.76,1.04 -0.76,0.72 -1.32,1.84 -0.52,1.12 -0.64,2.72 -0.12,1.48 0,2.8 z"
         inkscape:export-xdpi="90"
         inkscape:export-ydpi="90" />
      <path
         inkscape:connector-curvature="0"
         id="path5827"
         style="font-style:normal;font-variant:normal;font-weight:normal;font-stretch:normal;font-size:medium;line-height:125%;font-family:Rubik;-inkscape-font-specification:Rubik;letter-spacing:0px;word-spacing:0px;fill:#000000;fill-opacity:1;stroke:none;stroke-width:1px;stroke-linecap:butt;stroke-linejoin:miter;stroke-opacity:1"
         d="m 259.79459,978.64828 0,7.72 q 0,0.44 -0.32,0.76 -0.32,0.32 -0.76,0.32 l -1.48,0 q -0.44,0 -0.76,-0.32 -0.32,-0.32 -0.32,-0.76 l 0,-26.24 q 0,-0.44 0.32,-0.76 0.32,-0.32 0.76,-0.32 l 1.48,0 q 0.44,0 0.76,0.32 0.32,0.32 0.32,0.76 l 0,13.24 7.8,-6.04 q 0.24,-0.2 0.6,-0.44 0.4,-0.24 0.96,-0.24 l 2,0 q 0.4,0 0.68,0.28 0.28,0.28 0.28,0.68 0,0.2 -0.08,0.4 -0.04,0.16 -0.36,0.4 l -9.64,7.52 10.64,9.8 q 0.24,0.24 0.32,0.4 0.08,0.16 0.08,0.36 0,0.4 -0.28,0.68 -0.28,0.28 -0.68,0.28 l -1.88,0 q -0.6,0 -1.04,-0.24 -0.4,-0.24 -0.6,-0.44 l -8.8,-8.12 z"
         inkscape:export-xdpi="90"
         inkscape:export-ydpi="90" />
    </g>
    <g
       id="g5955">
      <path
         inkscape:connector-curvature="0"
         id="path5829"
         d="m 356.44141,319.5 -48.98633,61.75195 6.10547,4.84375 48.98633,-61.75195 -6.10547,-4.84375 z"
         style="color:#000000;font-style:normal;font-variant:normal;font-weight:normal;font-stretch:normal;font-size:medium;line-height:normal;font-family:sans-serif;text-indent:0;text-align:start;text-decoration:none;text-decoration-line:none;text-decoration-style:solid;text-decoration-color:#000000;letter-spacing:normal;word-spacing:normal;text-transform:none;direction:ltr;block-progression:tb;writing-mode:lr-tb;baseline-shift:baseline;text-anchor:start;white-space:normal;clip-rule:nonzero;display:inline;overflow:visible;visibility:visible;opacity:1;isolation:auto;mix-blend-mode:normal;color-interpolation:sRGB;color-interpolation-filters:linearRGB;solid-color:#000000;solid-opacity:1;fill:#000000;fill-opacity:1;fill-rule:evenodd;stroke:none;stroke-width:7.79350519;stroke-linecap:butt;stroke-linejoin:miter;stroke-miterlimit:4;stroke-dasharray:none;stroke-dashoffset:0;stroke-opacity:1;color-rendering:auto;image-rendering:auto;shape-rendering:auto;text-rendering:auto;enable-background:accumulate" />
      <path
         inkscape:connector-curvature="0"
         id="path5831"
         d="m 362.54688,319.5 -6.10352,4.8457 49.02734,61.75 6.10352,-4.8457 -49.02734,-61.75 z"
         style="color:#000000;font-style:normal;font-variant:normal;font-weight:normal;font-stretch:normal;font-size:medium;line-height:normal;font-family:sans-serif;text-indent:0;text-align:start;text-decoration:none;text-decoration-line:none;text-decoration-style:solid;text-decoration-color:#000000;letter-spacing:normal;word-spacing:normal;text-transform:none;direction:ltr;block-progression:tb;writing-mode:lr-tb;baseline-shift:baseline;text-anchor:start;white-space:normal;clip-rule:nonzero;display:inline;overflow:visible;visibility:visible;opacity:1;isolation:auto;mix-blend-mode:normal;color-interpolation:sRGB;color-interpolation-filters:linearRGB;solid-color:#000000;solid-opacity:1;fill:#000000;fill-opacity:1;fill-rule:evenodd;stroke:none;stroke-width:7.79350519;stroke-linecap:butt;stroke-linejoin:miter;stroke-miterlimit:4;stroke-dasharray:none;stroke-dashoffset:0;stroke-opacity:1;color-rendering:auto;image-rendering:auto;shape-rendering:auto;text-rendering:auto;enable-background:accumulate" />
      <path
         inkscape:connector-curvature="0"
         id="path5833"
         d="m 361.32812,318.48438 -3.66601,6.87695 115.82812,61.75 3.66602,-6.87695 -115.82813,-61.75 z"
         style="color:#000000;font-style:normal;font-variant:normal;font-weight:normal;font-stretch:normal;font-size:medium;line-height:normal;font-family:sans-serif;text-indent:0;text-align:start;text-decoration:none;text-decoration-line:none;text-decoration-style:solid;text-decoration-color:#000000;letter-spacing:normal;word-spacing:normal;text-transform:none;direction:ltr;block-progression:tb;writing-mode:lr-tb;baseline-shift:baseline;text-anchor:start;white-space:normal;clip-rule:nonzero;display:inline;overflow:visible;visibility:visible;opacity:1;isolation:auto;mix-blend-mode:normal;color-interpolation:sRGB;color-interpolation-filters:linearRGB;solid-color:#000000;solid-opacity:1;fill:#000000;fill-opacity:1;fill-rule:evenodd;stroke:none;stroke-width:7.79350519;stroke-linecap:butt;stroke-linejoin:miter;stroke-miterlimit:4;stroke-dasharray:none;stroke-dashoffset:0;stroke-opacity:1;color-rendering:auto;image-rendering:auto;shape-rendering:auto;text-rendering:auto;enable-background:accumulate" />
      <path
         sodipodi:nodetypes="ccccssssssscccccccccc"
         inkscape:connector-curvature="0"
         id="path5835"
         d="m 357.66016,318.48438 -98.67188,52.62109 c 2.1e-4,5.9e-4 -2e-4,10e-4 0,0.002 l -0.006,0.002 c -0.58978,-1.67724 -2.16302,-2.88282 -4.04687,-2.88282 l -24.73438,0 c -2.38915,0 -4.3125,1.92335 -4.3125,4.3125 l 0,24.73438 c 0,2.38915 1.92335,4.3125 4.3125,4.3125 l 24.73438,0 c 2.38915,0 4.3125,-1.92335 4.3125,-4.3125 l 0,-17.47266 102.08007,-54.43945 0.002,0 -3.66797,-6.87695 z m -125.17774,56.33593 20.04805,0 0.12578,20.17188 -20.17383,0 z"
         style="color:#000000;font-style:normal;font-variant:normal;font-weight:normal;font-stretch:normal;font-size:medium;line-height:normal;font-family:sans-serif;text-indent:0;text-align:start;text-decoration:none;text-decoration-line:none;text-decoration-style:solid;text-decoration-color:#000000;letter-spacing:normal;word-spacing:normal;text-transform:none;direction:ltr;block-progression:tb;writing-mode:lr-tb;baseline-shift:baseline;text-anchor:start;white-space:normal;clip-rule:nonzero;display:inline;overflow:visible;visibility:visible;opacity:1;isolation:auto;mix-blend-mode:normal;color-interpolation:sRGB;color-interpolation-filters:linearRGB;solid-color:#000000;solid-opacity:1;fill:#000000;fill-opacity:1;fill-rule:evenodd;stroke:none;stroke-width:7.79350519;stroke-linecap:butt;stroke-linejoin:miter;stroke-miterlimit:4;stroke-dasharray:none;stroke-dashoffset:0;stroke-opacity:1;color-rendering:auto;image-rendering:auto;shape-rendering:auto;text-rendering:auto;enable-background:accumulate" />
      <path
         id="rect5837"
         d="m 330.57887,265.95493 57.95392,0 c 2.35279,0 4.2469,1.89411 4.2469,4.2469 l 0,57.95392 c 0,2.35278 -1.89411,4.2469 -4.2469,4.2469 l -57.95392,0 c -2.35278,0 -4.2469,-1.89412 -4.2469,-4.2469 l 0,-57.95392 c 0,-2.35279 1.89412,-4.2469 4.2469,-4.2469 z"
         style="color:#000000;display:inline;overflow:visible;visibility:visible;opacity:0.98999999;fill:#000000;fill-opacity:1;fill-rule:nonzero;stroke:none;stroke-width:3.75;stroke-linecap:round;stroke-linejoin:bevel;stroke-miterlimit:4;stroke-dasharray:none;stroke-dashoffset:0;stroke-opacity:1;marker:none;enable-background:accumulate" />
      <path
         id="rect5839"
         d="M 335.02344 274.74609 L 335.02344 323.71094 L 383.98828 323.71094 L 383.98828 274.74609 L 335.02344 274.74609 z "
         style="color:#000000;display:inline;overflow:visible;visibility:visible;opacity:0.98999999;fill:#ffffff;fill-opacity:1;fill-rule:nonzero;stroke:none;stroke-width:3.75;stroke-linecap:round;stroke-linejoin:bevel;stroke-miterlimit:4;stroke-dasharray:none;stroke-dashoffset:0;stroke-opacity:1;marker:none;enable-background:accumulate" />
      <path
         id="rect5841"
         d="m 306.01472,368.22681 24.73444,0 c 2.38914,0 4.31254,1.92339 4.31254,4.31254 l 0,24.73443 c 0,2.38915 -1.9234,4.31255 -4.31254,4.31255 l -24.73444,0 c -2.38915,0 -4.31254,-1.9234 -4.31254,-4.31255 l 0,-24.73443 c 0,-2.38915 1.92339,-4.31254 4.31254,-4.31254 z"
         style="color:#000000;display:inline;overflow:visible;visibility:visible;opacity:0.98999999;fill:#000000;fill-opacity:1;fill-rule:nonzero;stroke:none;stroke-width:3.75;stroke-linecap:round;stroke-linejoin:bevel;stroke-miterlimit:4;stroke-dasharray:none;stroke-dashoffset:0;stroke-opacity:1;marker:none;enable-background:accumulate" />
      <path
         id="rect5843"
         d="m 308.2959,374.82053 20.17217,0 0,20.17217 -20.17217,0 z"
         style="color:#000000;display:inline;overflow:visible;visibility:visible;opacity:0.98999999;fill:#ffffff;fill-opacity:1;fill-rule:nonzero;stroke:none;stroke-width:3.75;stroke-linecap:round;stroke-linejoin:bevel;stroke-miterlimit:4;stroke-dasharray:none;stroke-dashoffset:0;stroke-opacity:1;marker:none;enable-background:accumulate" />
      <path
         id="rect5845"
         d="m 463.55772,368.22681 24.73443,0 c 2.38915,0 4.31255,1.92339 4.31255,4.31254 l 0,24.73443 c 0,2.38915 -1.9234,4.31255 -4.31255,4.31255 l -24.73443,0 c -2.38915,0 -4.31254,-1.9234 -4.31254,-4.31255 l 0,-24.73443 c 0,-2.38915 1.92339,-4.31254 4.31254,-4.31254 z"
         style="color:#000000;display:inline;overflow:visible;visibility:visible;opacity:0.98999999;fill:#000000;fill-opacity:1;fill-rule:nonzero;stroke:none;stroke-width:3.75;stroke-linecap:round;stroke-linejoin:bevel;stroke-miterlimit:4;stroke-dasharray:none;stroke-dashoffset:0;stroke-opacity:1;marker:none;enable-background:accumulate" />
      <path
         id="rect5847"
         d="m 465.8389,374.82053 20.17217,0 0,20.17217 -20.17217,0 z"
         style="color:#000000;display:inline;overflow:visible;visibility:visible;opacity:0.98999999;fill:#ffffff;fill-opacity:1;fill-rule:nonzero;stroke:none;stroke-width:3.75;stroke-linecap:round;stroke-linejoin:bevel;stroke-miterlimit:4;stroke-dasharray:none;stroke-dashoffset:0;stroke-opacity:1;marker:none;enable-background:accumulate" />
      <path
         id="rect5849"
         d="m 388.29585,368.22681 24.73443,0 c 2.38915,0 4.31255,1.92339 4.31255,4.31254 l 0,24.73443 c 0,2.38915 -1.9234,4.31255 -4.31255,4.31255 l -24.73443,0 c -2.38915,0 -4.31254,-1.9234 -4.31254,-4.31255 l 0,-24.73443 c 0,-2.38915 1.92339,-4.31254 4.31254,-4.31254 z"
         style="color:#000000;display:inline;overflow:visible;visibility:visible;opacity:0.98999999;fill:#000000;fill-opacity:1;fill-rule:nonzero;stroke:none;stroke-width:3.75;stroke-linecap:round;stroke-linejoin:bevel;stroke-miterlimit:4;stroke-dasharray:none;stroke-dashoffset:0;stroke-opacity:1;marker:none;enable-background:accumulate" />
      <path
         id="rect5851"
         d="m 390.57703,374.82053 20.17217,0 0,20.17217 -20.17217,0 z"
         style="color:#000000;display:inline;overflow:visible;visibility:visible;opacity:0.98999999;fill:#ffffff;fill-opacity:1;fill-rule:nonzero;stroke:none;stroke-width:3.75;stroke-linecap:round;stroke-linejoin:bevel;stroke-miterlimit:4;stroke-dasharray:none;stroke-dashoffset:0;stroke-opacity:1;marker:none;enable-background:accumulate" />
    </g>
    <g
       id="g5853"
       transform="matrix(1.9356144,0,0,1.9356144,-35.649733,-1667.4605)">
      <path
         inkscape:export-ydpi="90"
         inkscape:export-xdpi="90"
         d="m 144.25959,987.44828 q -0.52,0 -0.8,-0.32 -0.28,-0.32 -0.44,-0.68 l -7.96,-18.56 q -0.04,-0.12 -0.04,-0.28 0,-0.4 0.28,-0.68 0.28,-0.28 0.68,-0.28 l 1.48,0 q 0.6,0 0.88,0.32 0.32,0.32 0.44,0.64 l 6.2,14.52 6.2,-14.52 q 0.12,-0.32 0.4,-0.64 0.28,-0.32 0.76,-0.32 l 1.64,0 q 0.4,0 0.68,0.28 0.28,0.28 0.28,0.68 0,0.16 -0.04,0.28 l -7.96,18.56 q -0.16,0.36 -0.44,0.68 -0.24,0.32 -0.76,0.32 l -1.48,0 z"
         style="font-style:normal;font-variant:normal;font-weight:normal;font-stretch:normal;font-size:medium;line-height:125%;font-family:Rubik;-inkscape-font-specification:Rubik;letter-spacing:0px;word-spacing:0px;fill:#000000;fill-opacity:1;stroke:none;stroke-width:1px;stroke-linecap:butt;stroke-linejoin:miter;stroke-opacity:1"
         id="path5855"
         inkscape:connector-curvature="0" />
      <path
         inkscape:export-ydpi="90"
         inkscape:export-xdpi="90"
         id="path5857"
         d="m 162.84147,986.36828 q 0,0.44 -0.32,0.76 -0.32,0.32 -0.76,0.32 l -1.48,0 q -0.44,0 -0.76,-0.32 -0.32,-0.32 -0.32,-0.76 l 0,-18.64 q 0,-0.44 0.32,-0.76 0.32,-0.32 0.76,-0.32 l 1.48,0 q 0.44,0 0.76,0.32 0.32,0.32 0.32,0.76 l 0,18.64 z"
         style="font-style:normal;font-variant:normal;font-weight:normal;font-stretch:normal;font-size:medium;line-height:125%;font-family:Rubik;-inkscape-font-specification:Rubik;letter-spacing:0px;word-spacing:0px;fill:#000000;fill-opacity:1;stroke:none;stroke-width:1px;stroke-linecap:butt;stroke-linejoin:miter;stroke-opacity:1"
         inkscape:connector-curvature="0" />
      <path
         inkscape:export-ydpi="90"
         inkscape:export-xdpi="90"
         id="path5859"
         d="m 163.24147,962.40828 q 0,0.44 -0.32,0.76 -0.32,0.32 -0.76,0.32 l -2.28,0 q -0.44,0 -0.76,-0.32 -0.32,-0.32 -0.32,-0.76 l 0,-2.28 q 0,-0.44 0.32,-0.76 0.32,-0.32 0.76,-0.32 l 2.28,0 q 0.44,0 0.76,0.32 0.32,0.32 0.32,0.76 l 0,2.28 z"
         style="font-style:normal;font-variant:normal;font-weight:normal;font-stretch:normal;font-size:medium;line-height:125%;font-family:Rubik;-inkscape-font-specification:Rubik;letter-spacing:0px;word-spacing:0px;fill:#000000;fill-opacity:1;stroke:none;stroke-width:1px;stroke-linecap:butt;stroke-linejoin:miter;stroke-opacity:1"
         inkscape:connector-curvature="0" />
      <path
         inkscape:export-ydpi="90"
         inkscape:export-xdpi="90"
         d="m 167.33084,982.20828 q 0,-1.6 0.64,-2.8 0.64,-1.2 1.76,-2.04 1.12,-0.84 2.6,-1.36 1.52,-0.52 3.2,-0.8 l 5.64,-0.92 0,-0.52 q 0,-2.04 -1.36,-3.04 -1.32,-1.04 -3.32,-1.04 -1.76,0 -2.68,0.64 -0.88,0.64 -1.52,1.52 -0.24,0.32 -0.52,0.44 -0.28,0.12 -0.76,0.12 l -1.2,0 q -0.44,0 -0.8,-0.32 -0.32,-0.32 -0.28,-0.76 0.08,-0.88 0.68,-1.8 0.64,-0.92 1.68,-1.64 1.08,-0.72 2.44,-1.16 1.4,-0.48 2.96,-0.48 1.8,0 3.32,0.52 1.56,0.52 2.64,1.52 1.12,1 1.72,2.48 0.64,1.48 0.64,3.4 l 0,12.2 q 0,0.44 -0.32,0.76 -0.32,0.32 -0.76,0.32 l -1.48,0 q -0.44,0 -0.76,-0.32 -0.32,-0.32 -0.32,-0.76 l 0,-1.64 q -0.36,0.76 -1.12,1.36 -0.76,0.56 -1.76,0.96 -0.96,0.4 -2.04,0.6 -1.04,0.2 -1.96,0.2 -1.56,0 -2.88,-0.44 -1.28,-0.44 -2.2,-1.16 -0.88,-0.76 -1.4,-1.8 -0.48,-1.04 -0.48,-2.24 z m 7.36,2.2 q 1.44,0 2.64,-0.44 1.2,-0.44 2.04,-1.2 0.88,-0.8 1.32,-1.88 0.48,-1.08 0.48,-2.4 l 0,-1 -4.72,0.76 q -2.52,0.4 -4,1.28 -1.48,0.88 -1.48,2.28 0,0.44 0.2,0.88 0.2,0.44 0.64,0.84 0.44,0.4 1.12,0.64 0.72,0.24 1.76,0.24 z"
         style="font-style:normal;font-variant:normal;font-weight:normal;font-stretch:normal;font-size:medium;line-height:125%;font-family:Rubik;-inkscape-font-specification:Rubik;letter-spacing:0px;word-spacing:0px;fill:#000000;fill-opacity:1;stroke:none;stroke-width:1px;stroke-linecap:butt;stroke-linejoin:miter;stroke-opacity:1"
         id="path5861"
         inkscape:connector-curvature="0" />
      <path
         inkscape:export-ydpi="90"
         inkscape:export-xdpi="90"
         d="m 202.52584,981.68828 q 0,-0.76 -0.44,-1.24 -0.4,-0.52 -1.24,-0.88 -0.84,-0.36 -2.16,-0.68 -1.28,-0.32 -3,-0.68 -3.24,-0.68 -4.56,-2.24 -1.28,-1.6 -1.28,-3.72 0,-1.2 0.48,-2.28 0.48,-1.08 1.44,-1.92 0.96,-0.84 2.4,-1.32 1.48,-0.48 3.44,-0.48 1.96,0 3.4,0.44 1.48,0.44 2.48,1.12 1,0.68 1.52,1.48 0.52,0.76 0.56,1.48 0.04,0.44 -0.32,0.76 -0.32,0.32 -0.76,0.32 l -1.32,0 q -0.24,0 -0.6,-0.08 -0.32,-0.12 -0.6,-0.48 -0.52,-0.68 -1.56,-1.12 -1,-0.48 -2.8,-0.48 -1.84,0 -3,0.68 -1.12,0.68 -1.12,1.88 0,0.76 0.32,1.24 0.32,0.44 1.04,0.8 0.72,0.32 1.88,0.6 1.2,0.28 2.96,0.68 1.84,0.4 3.08,1.04 1.24,0.6 2,1.4 0.76,0.76 1.08,1.72 0.32,0.92 0.32,1.96 0,1.2 -0.6,2.32 -0.56,1.12 -1.64,1.96 -1.08,0.84 -2.64,1.36 -1.52,0.52 -3.48,0.52 -1.96,0 -3.48,-0.48 -1.52,-0.48 -2.6,-1.16 -1.08,-0.72 -1.68,-1.52 -0.56,-0.84 -0.6,-1.56 -0.04,-0.44 0.28,-0.76 0.32,-0.32 0.8,-0.32 l 1.44,0 q 0.24,0 0.56,0.08 0.32,0.04 0.6,0.44 0.64,0.88 1.76,1.36 1.12,0.48 2.92,0.48 0.88,0 1.72,-0.2 0.88,-0.2 1.52,-0.56 0.68,-0.36 1.08,-0.84 0.4,-0.52 0.4,-1.12 z"
         style="font-style:normal;font-variant:normal;font-weight:normal;font-stretch:normal;font-size:medium;line-height:125%;font-family:Rubik;-inkscape-font-specification:Rubik;letter-spacing:0px;word-spacing:0px;fill:#000000;fill-opacity:1;stroke:none;stroke-width:1px;stroke-linecap:butt;stroke-linejoin:miter;stroke-opacity:1"
         id="path5863"
         inkscape:connector-curvature="0" />
      <path
         inkscape:export-ydpi="90"
         inkscape:export-xdpi="90"
         d="m 219.44022,966.24828 q 2.16,0 3.84,0.68 1.68,0.64 2.88,1.8 1.2,1.16 1.88,2.84 0.72,1.64 0.88,3.6 0.04,0.36 0.04,0.88 0,0.48 0,1.04 0,0.52 0,1.04 0,0.48 -0.04,0.8 -0.2,2 -0.88,3.64 -0.68,1.64 -1.88,2.8 -1.2,1.16 -2.88,1.84 -1.68,0.64 -3.84,0.64 -2.16,0 -3.84,-0.64 -1.68,-0.68 -2.88,-1.84 -1.2,-1.16 -1.92,-2.8 -0.68,-1.64 -0.84,-3.64 -0.04,-0.32 -0.08,-0.8 0,-0.52 0,-1.04 0,-0.56 0,-1.04 0.04,-0.52 0.08,-0.88 0.16,-1.96 0.84,-3.6 0.72,-1.68 1.92,-2.84 1.2,-1.16 2.88,-1.8 1.68,-0.68 3.84,-0.68 z m 5.84,12.48 q 0.08,-0.68 0.08,-1.64 0,-1 -0.08,-1.72 -0.12,-1.2 -0.52,-2.24 -0.4,-1.04 -1.12,-1.8 -0.72,-0.76 -1.76,-1.2 -1.04,-0.44 -2.44,-0.44 -1.4,0 -2.44,0.44 -1.04,0.44 -1.76,1.2 -0.72,0.76 -1.12,1.8 -0.4,1.04 -0.52,2.24 -0.08,0.72 -0.08,1.72 0,0.96 0.08,1.64 0.12,1.2 0.52,2.24 0.4,1.04 1.12,1.8 0.72,0.76 1.76,1.2 1.04,0.44 2.44,0.44 1.4,0 2.44,-0.44 1.04,-0.44 1.76,-1.2 0.72,-0.76 1.12,-1.8 0.4,-1.04 0.52,-2.24 z"
         style="font-style:normal;font-variant:normal;font-weight:normal;font-stretch:normal;font-size:medium;line-height:125%;font-family:Rubik;-inkscape-font-specification:Rubik;letter-spacing:0px;word-spacing:0px;fill:#000000;fill-opacity:1;stroke:none;stroke-width:1px;stroke-linecap:butt;stroke-linejoin:miter;stroke-opacity:1"
         id="path5865"
         inkscape:connector-curvature="0" />
      <path
         inkscape:export-ydpi="90"
         inkscape:export-xdpi="90"
         d="m 236.64709,978.44828 q 0.16,1.6 0.68,2.72 0.56,1.12 1.32,1.84 0.8,0.72 1.76,1.08 0.96,0.32 1.96,0.32 1.92,0 3.28,-0.72 1.36,-0.72 2.12,-2.4 0.28,-0.64 0.56,-0.84 0.32,-0.24 0.76,-0.24 l 1.2,0 q 0.44,0 0.76,0.32 0.36,0.32 0.32,0.76 -0.04,0.96 -0.64,2.12 -0.56,1.12 -1.72,2.12 -1.12,0.96 -2.8,1.64 -1.64,0.68 -3.84,0.68 -2.2,0 -3.92,-0.72 -1.68,-0.72 -2.88,-1.96 -1.16,-1.24 -1.84,-2.92 -0.64,-1.68 -0.72,-3.6 -0.04,-0.64 -0.08,-1.56 0,-0.96 0.08,-1.64 0.16,-1.92 0.8,-3.6 0.68,-1.68 1.84,-2.92 1.16,-1.24 2.84,-1.96 1.68,-0.72 3.88,-0.72 2.2,0 3.84,0.68 1.68,0.68 2.8,1.68 1.16,0.96 1.72,2.12 0.6,1.12 0.64,2.08 0.04,0.44 -0.32,0.76 -0.32,0.32 -0.76,0.32 l -1.2,0 q -0.44,0 -0.76,-0.2 -0.28,-0.24 -0.56,-0.88 -0.76,-1.68 -2.12,-2.4 -1.36,-0.72 -3.28,-0.72 -1,0 -2,0.36 -0.96,0.32 -1.76,1.04 -0.76,0.72 -1.32,1.84 -0.52,1.12 -0.64,2.72 -0.12,1.48 0,2.8 z"
         style="font-style:normal;font-variant:normal;font-weight:normal;font-stretch:normal;font-size:medium;line-height:125%;font-family:Rubik;-inkscape-font-specification:Rubik;letter-spacing:0px;word-spacing:0px;fill:#000000;fill-opacity:1;stroke:none;stroke-width:1px;stroke-linecap:butt;stroke-linejoin:miter;stroke-opacity:1"
         id="path5867"
         inkscape:connector-curvature="0" />
      <path
         inkscape:export-ydpi="90"
         inkscape:export-xdpi="90"
         d="m 259.79459,978.64828 0,7.72 q 0,0.44 -0.32,0.76 -0.32,0.32 -0.76,0.32 l -1.48,0 q -0.44,0 -0.76,-0.32 -0.32,-0.32 -0.32,-0.76 l 0,-26.24 q 0,-0.44 0.32,-0.76 0.32,-0.32 0.76,-0.32 l 1.48,0 q 0.44,0 0.76,0.32 0.32,0.32 0.32,0.76 l 0,13.24 7.8,-6.04 q 0.24,-0.2 0.6,-0.44 0.4,-0.24 0.96,-0.24 l 2,0 q 0.4,0 0.68,0.28 0.28,0.28 0.28,0.68 0,0.2 -0.08,0.4 -0.04,0.16 -0.36,0.4 l -9.64,7.52 10.64,9.8 q 0.24,0.24 0.32,0.4 0.08,0.16 0.08,0.36 0,0.4 -0.28,0.68 -0.28,0.28 -0.68,0.28 l -1.88,0 q -0.6,0 -1.04,-0.24 -0.4,-0.24 -0.6,-0.44 l -8.8,-8.12 z"
         style="font-style:normal;font-variant:normal;font-weight:normal;font-stretch:normal;font-size:medium;line-height:125%;font-family:Rubik;-inkscape-font-specification:Rubik;letter-spacing:0px;word-spacing:0px;fill:#000000;fill-opacity:1;stroke:none;stroke-width:1px;stroke-linecap:butt;stroke-linejoin:miter;stroke-opacity:1"
         id="path5869"
         inkscape:connector-curvature="0" />
    </g>
    <g
       id="g6025"
       transform="translate(0,70.710678)">
      <path
         style="color:#000000;font-style:normal;font-variant:normal;font-weight:normal;font-stretch:normal;font-size:medium;line-height:normal;font-family:sans-serif;text-indent:0;text-align:start;text-decoration:none;text-decoration-line:none;text-decoration-style:solid;text-decoration-color:#000000;letter-spacing:normal;word-spacing:normal;text-transform:none;direction:ltr;block-progression:tb;writing-mode:lr-tb;baseline-shift:baseline;text-anchor:start;white-space:normal;clip-rule:nonzero;display:inline;overflow:visible;visibility:visible;opacity:1;isolation:auto;mix-blend-mode:normal;color-interpolation:sRGB;color-interpolation-filters:linearRGB;solid-color:#000000;solid-opacity:1;fill:#ffffff;fill-opacity:1;fill-rule:evenodd;stroke:none;stroke-width:7.79350519;stroke-linecap:butt;stroke-linejoin:miter;stroke-miterlimit:4;stroke-dasharray:none;stroke-dashoffset:0;stroke-opacity:1;color-rendering:auto;image-rendering:auto;shape-rendering:auto;text-rendering:auto;enable-background:accumulate"
         d="m 356.44141,748.07143 -48.98633,61.75195 6.10547,4.84375 48.98633,-61.75195 -6.10547,-4.84375 z"
         id="path5971"
         inkscape:connector-curvature="0" />
      <path
         style="color:#000000;font-style:normal;font-variant:normal;font-weight:normal;font-stretch:normal;font-size:medium;line-height:normal;font-family:sans-serif;text-indent:0;text-align:start;text-decoration:none;text-decoration-line:none;text-decoration-style:solid;text-decoration-color:#000000;letter-spacing:normal;word-spacing:normal;text-transform:none;direction:ltr;block-progression:tb;writing-mode:lr-tb;baseline-shift:baseline;text-anchor:start;white-space:normal;clip-rule:nonzero;display:inline;overflow:visible;visibility:visible;opacity:1;isolation:auto;mix-blend-mode:normal;color-interpolation:sRGB;color-interpolation-filters:linearRGB;solid-color:#000000;solid-opacity:1;fill:#ffffff;fill-opacity:1;fill-rule:evenodd;stroke:none;stroke-width:7.79350519;stroke-linecap:butt;stroke-linejoin:miter;stroke-miterlimit:4;stroke-dasharray:none;stroke-dashoffset:0;stroke-opacity:1;color-rendering:auto;image-rendering:auto;shape-rendering:auto;text-rendering:auto;enable-background:accumulate"
         d="m 362.54688,748.07143 -6.10352,4.8457 49.02734,61.75 6.10352,-4.8457 -49.02734,-61.75 z"
         id="path5973"
         inkscape:connector-curvature="0" />
      <path
         style="color:#000000;font-style:normal;font-variant:normal;font-weight:normal;font-stretch:normal;font-size:medium;line-height:normal;font-family:sans-serif;text-indent:0;text-align:start;text-decoration:none;text-decoration-line:none;text-decoration-style:solid;text-decoration-color:#000000;letter-spacing:normal;word-spacing:normal;text-transform:none;direction:ltr;block-progression:tb;writing-mode:lr-tb;baseline-shift:baseline;text-anchor:start;white-space:normal;clip-rule:nonzero;display:inline;overflow:visible;visibility:visible;opacity:1;isolation:auto;mix-blend-mode:normal;color-interpolation:sRGB;color-interpolation-filters:linearRGB;solid-color:#000000;solid-opacity:1;fill:#ffffff;fill-opacity:1;fill-rule:evenodd;stroke:none;stroke-width:7.79350519;stroke-linecap:butt;stroke-linejoin:miter;stroke-miterlimit:4;stroke-dasharray:none;stroke-dashoffset:0;stroke-opacity:1;color-rendering:auto;image-rendering:auto;shape-rendering:auto;text-rendering:auto;enable-background:accumulate"
         d="m 361.32812,747.05581 -3.66601,6.87695 115.82812,61.75 3.66602,-6.87695 -115.82813,-61.75 z"
         id="path5975"
         inkscape:connector-curvature="0" />
      <path
         style="color:#000000;font-style:normal;font-variant:normal;font-weight:normal;font-stretch:normal;font-size:medium;line-height:normal;font-family:sans-serif;text-indent:0;text-align:start;text-decoration:none;text-decoration-line:none;text-decoration-style:solid;text-decoration-color:#000000;letter-spacing:normal;word-spacing:normal;text-transform:none;direction:ltr;block-progression:tb;writing-mode:lr-tb;baseline-shift:baseline;text-anchor:start;white-space:normal;clip-rule:nonzero;display:inline;overflow:visible;visibility:visible;opacity:1;isolation:auto;mix-blend-mode:normal;color-interpolation:sRGB;color-interpolation-filters:linearRGB;solid-color:#000000;solid-opacity:1;fill:#ffffff;fill-opacity:1;fill-rule:evenodd;stroke:none;stroke-width:7.79350519;stroke-linecap:butt;stroke-linejoin:miter;stroke-miterlimit:4;stroke-dasharray:none;stroke-dashoffset:0;stroke-opacity:1;color-rendering:auto;image-rendering:auto;shape-rendering:auto;text-rendering:auto;enable-background:accumulate"
         d="m 357.66016,747.05581 -98.67188,52.62109 c 2.1e-4,5.9e-4 -2e-4,10e-4 0,0.002 l -0.006,0.002 c -0.58978,-1.67724 -2.16302,-2.88282 -4.04687,-2.88282 l -24.73438,0 c -2.38915,0 -4.3125,1.92335 -4.3125,4.3125 l 0,24.73438 c 0,2.38915 1.92335,4.3125 4.3125,4.3125 l 24.73438,0 c 2.38915,0 4.3125,-1.92335 4.3125,-4.3125 l 0,-17.47266 102.08007,-54.43945 0.002,0 -3.66797,-6.87695 z m -125.17774,56.33593 20.04805,0 0.12578,20.17188 -20.17383,0 z"
         id="path5977"
         inkscape:connector-curvature="0"
         sodipodi:nodetypes="ccccssssssscccccccccc" />
      <path
         style="color:#000000;display:inline;overflow:visible;visibility:visible;opacity:0.98999999;fill:#ffffff;fill-opacity:1;fill-rule:nonzero;stroke:none;stroke-width:3.75;stroke-linecap:round;stroke-linejoin:bevel;stroke-miterlimit:4;stroke-dasharray:none;stroke-dashoffset:0;stroke-opacity:1;marker:none;enable-background:accumulate"
         d="m 330.57887,694.52636 57.95392,0 c 2.35279,0 4.2469,1.89411 4.2469,4.2469 l 0,57.95392 c 0,2.35278 -1.89411,4.2469 -4.2469,4.2469 l -57.95392,0 c -2.35278,0 -4.2469,-1.89412 -4.2469,-4.2469 l 0,-57.95392 c 0,-2.35279 1.89412,-4.2469 4.2469,-4.2469 z"
         id="path5979"
         inkscape:connector-curvature="0" />
      <path
         style="color:#000000;display:inline;overflow:visible;visibility:visible;opacity:0.98999999;fill:#000000;fill-opacity:1;fill-rule:nonzero;stroke:none;stroke-width:3.75;stroke-linecap:round;stroke-linejoin:bevel;stroke-miterlimit:4;stroke-dasharray:none;stroke-dashoffset:0;stroke-opacity:1;marker:none;enable-background:accumulate"
         d="m 335.02344,703.31752 0,48.96485 48.96484,0 0,-48.96485 -48.96484,0 z"
         id="path5981"
         inkscape:connector-curvature="0" />
      <path
         style="color:#000000;display:inline;overflow:visible;visibility:visible;opacity:0.98999999;fill:#ffffff;fill-opacity:1;fill-rule:nonzero;stroke:none;stroke-width:3.75;stroke-linecap:round;stroke-linejoin:bevel;stroke-miterlimit:4;stroke-dasharray:none;stroke-dashoffset:0;stroke-opacity:1;marker:none;enable-background:accumulate"
         d="m 306.01472,796.79824 24.73444,0 c 2.38914,0 4.31254,1.92339 4.31254,4.31254 l 0,24.73443 c 0,2.38915 -1.9234,4.31255 -4.31254,4.31255 l -24.73444,0 c -2.38915,0 -4.31254,-1.9234 -4.31254,-4.31255 l 0,-24.73443 c 0,-2.38915 1.92339,-4.31254 4.31254,-4.31254 z"
         id="path5983"
         inkscape:connector-curvature="0" />
      <path
         style="color:#000000;display:inline;overflow:visible;visibility:visible;opacity:0.98999999;fill:#000000;fill-opacity:1;fill-rule:nonzero;stroke:none;stroke-width:3.75;stroke-linecap:round;stroke-linejoin:bevel;stroke-miterlimit:4;stroke-dasharray:none;stroke-dashoffset:0;stroke-opacity:1;marker:none;enable-background:accumulate"
         d="m 308.2959,803.39196 20.17217,0 0,20.17217 -20.17217,0 z"
         id="path5985"
         inkscape:connector-curvature="0" />
      <path
         style="color:#000000;display:inline;overflow:visible;visibility:visible;opacity:0.98999999;fill:#ffffff;fill-opacity:1;fill-rule:nonzero;stroke:none;stroke-width:3.75;stroke-linecap:round;stroke-linejoin:bevel;stroke-miterlimit:4;stroke-dasharray:none;stroke-dashoffset:0;stroke-opacity:1;marker:none;enable-background:accumulate"
         d="m 463.55772,796.79824 24.73443,0 c 2.38915,0 4.31255,1.92339 4.31255,4.31254 l 0,24.73443 c 0,2.38915 -1.9234,4.31255 -4.31255,4.31255 l -24.73443,0 c -2.38915,0 -4.31254,-1.9234 -4.31254,-4.31255 l 0,-24.73443 c 0,-2.38915 1.92339,-4.31254 4.31254,-4.31254 z"
         id="path5987"
         inkscape:connector-curvature="0" />
      <path
         style="color:#000000;display:inline;overflow:visible;visibility:visible;opacity:0.98999999;fill:#000000;fill-opacity:1;fill-rule:nonzero;stroke:none;stroke-width:3.75;stroke-linecap:round;stroke-linejoin:bevel;stroke-miterlimit:4;stroke-dasharray:none;stroke-dashoffset:0;stroke-opacity:1;marker:none;enable-background:accumulate"
         d="m 465.8389,803.39196 20.17217,0 0,20.17217 -20.17217,0 z"
         id="path5989"
         inkscape:connector-curvature="0" />
      <path
         style="color:#000000;display:inline;overflow:visible;visibility:visible;opacity:0.98999999;fill:#ffffff;fill-opacity:1;fill-rule:nonzero;stroke:none;stroke-width:3.75;stroke-linecap:round;stroke-linejoin:bevel;stroke-miterlimit:4;stroke-dasharray:none;stroke-dashoffset:0;stroke-opacity:1;marker:none;enable-background:accumulate"
         d="m 388.29585,796.79824 24.73443,0 c 2.38915,0 4.31255,1.92339 4.31255,4.31254 l 0,24.73443 c 0,2.38915 -1.9234,4.31255 -4.31255,4.31255 l -24.73443,0 c -2.38915,0 -4.31254,-1.9234 -4.31254,-4.31255 l 0,-24.73443 c 0,-2.38915 1.92339,-4.31254 4.31254,-4.31254 z"
         id="path5991"
         inkscape:connector-curvature="0" />
      <path
         style="color:#000000;display:inline;overflow:visible;visibility:visible;opacity:0.98999999;fill:#000000;fill-opacity:1;fill-rule:nonzero;stroke:none;stroke-width:3.75;stroke-linecap:round;stroke-linejoin:bevel;stroke-miterlimit:4;stroke-dasharray:none;stroke-dashoffset:0;stroke-opacity:1;marker:none;enable-background:accumulate"
         d="m 390.57703,803.39196 20.17217,0 0,20.17217 -20.17217,0 z"
         id="path5993"
         inkscape:connector-curvature="0" />
      <g
         style="fill:#ffffff"
         id="g5995"
         transform="matrix(1.9356144,0,0,1.9356144,-35.649733,-1238.8891)">
        <path
           inkscape:export-ydpi="90"
           inkscape:export-xdpi="90"
           d="m 144.25959,987.44828 q -0.52,0 -0.8,-0.32 -0.28,-0.32 -0.44,-0.68 l -7.96,-18.56 q -0.04,-0.12 -0.04,-0.28 0,-0.4 0.28,-0.68 0.28,-0.28 0.68,-0.28 l 1.48,0 q 0.6,0 0.88,0.32 0.32,0.32 0.44,0.64 l 6.2,14.52 6.2,-14.52 q 0.12,-0.32 0.4,-0.64 0.28,-0.32 0.76,-0.32 l 1.64,0 q 0.4,0 0.68,0.28 0.28,0.28 0.28,0.68 0,0.16 -0.04,0.28 l -7.96,18.56 q -0.16,0.36 -0.44,0.68 -0.24,0.32 -0.76,0.32 l -1.48,0 z"
           style="font-style:normal;font-variant:normal;font-weight:normal;font-stretch:normal;font-size:medium;line-height:125%;font-family:Rubik;-inkscape-font-specification:Rubik;letter-spacing:0px;word-spacing:0px;fill:#ffffff;fill-opacity:1;stroke:none;stroke-width:1px;stroke-linecap:butt;stroke-linejoin:miter;stroke-opacity:1"
           id="path5997"
           inkscape:connector-curvature="0" />
        <path
           inkscape:export-ydpi="90"
           inkscape:export-xdpi="90"
           id="path5999"
           d="m 162.84147,986.36828 q 0,0.44 -0.32,0.76 -0.32,0.32 -0.76,0.32 l -1.48,0 q -0.44,0 -0.76,-0.32 -0.32,-0.32 -0.32,-0.76 l 0,-18.64 q 0,-0.44 0.32,-0.76 0.32,-0.32 0.76,-0.32 l 1.48,0 q 0.44,0 0.76,0.32 0.32,0.32 0.32,0.76 l 0,18.64 z"
           style="font-style:normal;font-variant:normal;font-weight:normal;font-stretch:normal;font-size:medium;line-height:125%;font-family:Rubik;-inkscape-font-specification:Rubik;letter-spacing:0px;word-spacing:0px;fill:#ffffff;fill-opacity:1;stroke:none;stroke-width:1px;stroke-linecap:butt;stroke-linejoin:miter;stroke-opacity:1"
           inkscape:connector-curvature="0" />
        <path
           inkscape:export-ydpi="90"
           inkscape:export-xdpi="90"
           id="path6001"
           d="m 163.24147,962.40828 q 0,0.44 -0.32,0.76 -0.32,0.32 -0.76,0.32 l -2.28,0 q -0.44,0 -0.76,-0.32 -0.32,-0.32 -0.32,-0.76 l 0,-2.28 q 0,-0.44 0.32,-0.76 0.32,-0.32 0.76,-0.32 l 2.28,0 q 0.44,0 0.76,0.32 0.32,0.32 0.32,0.76 l 0,2.28 z"
           style="font-style:normal;font-variant:normal;font-weight:normal;font-stretch:normal;font-size:medium;line-height:125%;font-family:Rubik;-inkscape-font-specification:Rubik;letter-spacing:0px;word-spacing:0px;fill:#ffffff;fill-opacity:1;stroke:none;stroke-width:1px;stroke-linecap:butt;stroke-linejoin:miter;stroke-opacity:1"
           inkscape:connector-curvature="0" />
        <path
           inkscape:export-ydpi="90"
           inkscape:export-xdpi="90"
           d="m 167.33084,982.20828 q 0,-1.6 0.64,-2.8 0.64,-1.2 1.76,-2.04 1.12,-0.84 2.6,-1.36 1.52,-0.52 3.2,-0.8 l 5.64,-0.92 0,-0.52 q 0,-2.04 -1.36,-3.04 -1.32,-1.04 -3.32,-1.04 -1.76,0 -2.68,0.64 -0.88,0.64 -1.52,1.52 -0.24,0.32 -0.52,0.44 -0.28,0.12 -0.76,0.12 l -1.2,0 q -0.44,0 -0.8,-0.32 -0.32,-0.32 -0.28,-0.76 0.08,-0.88 0.68,-1.8 0.64,-0.92 1.68,-1.64 1.08,-0.72 2.44,-1.16 1.4,-0.48 2.96,-0.48 1.8,0 3.32,0.52 1.56,0.52 2.64,1.52 1.12,1 1.72,2.48 0.64,1.48 0.64,3.4 l 0,12.2 q 0,0.44 -0.32,0.76 -0.32,0.32 -0.76,0.32 l -1.48,0 q -0.44,0 -0.76,-0.32 -0.32,-0.32 -0.32,-0.76 l 0,-1.64 q -0.36,0.76 -1.12,1.36 -0.76,0.56 -1.76,0.96 -0.96,0.4 -2.04,0.6 -1.04,0.2 -1.96,0.2 -1.56,0 -2.88,-0.44 -1.28,-0.44 -2.2,-1.16 -0.88,-0.76 -1.4,-1.8 -0.48,-1.04 -0.48,-2.24 z m 7.36,2.2 q 1.44,0 2.64,-0.44 1.2,-0.44 2.04,-1.2 0.88,-0.8 1.32,-1.88 0.48,-1.08 0.48,-2.4 l 0,-1 -4.72,0.76 q -2.52,0.4 -4,1.28 -1.48,0.88 -1.48,2.28 0,0.44 0.2,0.88 0.2,0.44 0.64,0.84 0.44,0.4 1.12,0.64 0.72,0.24 1.76,0.24 z"
           style="font-style:normal;font-variant:normal;font-weight:normal;font-stretch:normal;font-size:medium;line-height:125%;font-family:Rubik;-inkscape-font-specification:Rubik;letter-spacing:0px;word-spacing:0px;fill:#ffffff;fill-opacity:1;stroke:none;stroke-width:1px;stroke-linecap:butt;stroke-linejoin:miter;stroke-opacity:1"
           id="path6003"
           inkscape:connector-curvature="0" />
        <path
           inkscape:export-ydpi="90"
           inkscape:export-xdpi="90"
           d="m 202.52584,981.68828 q 0,-0.76 -0.44,-1.24 -0.4,-0.52 -1.24,-0.88 -0.84,-0.36 -2.16,-0.68 -1.28,-0.32 -3,-0.68 -3.24,-0.68 -4.56,-2.24 -1.28,-1.6 -1.28,-3.72 0,-1.2 0.48,-2.28 0.48,-1.08 1.44,-1.92 0.96,-0.84 2.4,-1.32 1.48,-0.48 3.44,-0.48 1.96,0 3.4,0.44 1.48,0.44 2.48,1.12 1,0.68 1.52,1.48 0.52,0.76 0.56,1.48 0.04,0.44 -0.32,0.76 -0.32,0.32 -0.76,0.32 l -1.32,0 q -0.24,0 -0.6,-0.08 -0.32,-0.12 -0.6,-0.48 -0.52,-0.68 -1.56,-1.12 -1,-0.48 -2.8,-0.48 -1.84,0 -3,0.68 -1.12,0.68 -1.12,1.88 0,0.76 0.32,1.24 0.32,0.44 1.04,0.8 0.72,0.32 1.88,0.6 1.2,0.28 2.96,0.68 1.84,0.4 3.08,1.04 1.24,0.6 2,1.4 0.76,0.76 1.08,1.72 0.32,0.92 0.32,1.96 0,1.2 -0.6,2.32 -0.56,1.12 -1.64,1.96 -1.08,0.84 -2.64,1.36 -1.52,0.52 -3.48,0.52 -1.96,0 -3.48,-0.48 -1.52,-0.48 -2.6,-1.16 -1.08,-0.72 -1.68,-1.52 -0.56,-0.84 -0.6,-1.56 -0.04,-0.44 0.28,-0.76 0.32,-0.32 0.8,-0.32 l 1.44,0 q 0.24,0 0.56,0.08 0.32,0.04 0.6,0.44 0.64,0.88 1.76,1.36 1.12,0.48 2.92,0.48 0.88,0 1.72,-0.2 0.88,-0.2 1.52,-0.56 0.68,-0.36 1.08,-0.84 0.4,-0.52 0.4,-1.12 z"
           style="font-style:normal;font-variant:normal;font-weight:normal;font-stretch:normal;font-size:medium;line-height:125%;font-family:Rubik;-inkscape-font-specification:Rubik;letter-spacing:0px;word-spacing:0px;fill:#ffffff;fill-opacity:1;stroke:none;stroke-width:1px;stroke-linecap:butt;stroke-linejoin:miter;stroke-opacity:1"
           id="path6005"
           inkscape:connector-curvature="0" />
        <path
           inkscape:export-ydpi="90"
           inkscape:export-xdpi="90"
           d="m 219.44022,966.24828 q 2.16,0 3.84,0.68 1.68,0.64 2.88,1.8 1.2,1.16 1.88,2.84 0.72,1.64 0.88,3.6 0.04,0.36 0.04,0.88 0,0.48 0,1.04 0,0.52 0,1.04 0,0.48 -0.04,0.8 -0.2,2 -0.88,3.64 -0.68,1.64 -1.88,2.8 -1.2,1.16 -2.88,1.84 -1.68,0.64 -3.84,0.64 -2.16,0 -3.84,-0.64 -1.68,-0.68 -2.88,-1.84 -1.2,-1.16 -1.92,-2.8 -0.68,-1.64 -0.84,-3.64 -0.04,-0.32 -0.08,-0.8 0,-0.52 0,-1.04 0,-0.56 0,-1.04 0.04,-0.52 0.08,-0.88 0.16,-1.96 0.84,-3.6 0.72,-1.68 1.92,-2.84 1.2,-1.16 2.88,-1.8 1.68,-0.68 3.84,-0.68 z m 5.84,12.48 q 0.08,-0.68 0.08,-1.64 0,-1 -0.08,-1.72 -0.12,-1.2 -0.52,-2.24 -0.4,-1.04 -1.12,-1.8 -0.72,-0.76 -1.76,-1.2 -1.04,-0.44 -2.44,-0.44 -1.4,0 -2.44,0.44 -1.04,0.44 -1.76,1.2 -0.72,0.76 -1.12,1.8 -0.4,1.04 -0.52,2.24 -0.08,0.72 -0.08,1.72 0,0.96 0.08,1.64 0.12,1.2 0.52,2.24 0.4,1.04 1.12,1.8 0.72,0.76 1.76,1.2 1.04,0.44 2.44,0.44 1.4,0 2.44,-0.44 1.04,-0.44 1.76,-1.2 0.72,-0.76 1.12,-1.8 0.4,-1.04 0.52,-2.24 z"
           style="font-style:normal;font-variant:normal;font-weight:normal;font-stretch:normal;font-size:medium;line-height:125%;font-family:Rubik;-inkscape-font-specification:Rubik;letter-spacing:0px;word-spacing:0px;fill:#ffffff;fill-opacity:1;stroke:none;stroke-width:1px;stroke-linecap:butt;stroke-linejoin:miter;stroke-opacity:1"
           id="path6007"
           inkscape:connector-curvature="0" />
        <path
           inkscape:export-ydpi="90"
           inkscape:export-xdpi="90"
           d="m 236.64709,978.44828 q 0.16,1.6 0.68,2.72 0.56,1.12 1.32,1.84 0.8,0.72 1.76,1.08 0.96,0.32 1.96,0.32 1.92,0 3.28,-0.72 1.36,-0.72 2.12,-2.4 0.28,-0.64 0.56,-0.84 0.32,-0.24 0.76,-0.24 l 1.2,0 q 0.44,0 0.76,0.32 0.36,0.32 0.32,0.76 -0.04,0.96 -0.64,2.12 -0.56,1.12 -1.72,2.12 -1.12,0.96 -2.8,1.64 -1.64,0.68 -3.84,0.68 -2.2,0 -3.92,-0.72 -1.68,-0.72 -2.88,-1.96 -1.16,-1.24 -1.84,-2.92 -0.64,-1.68 -0.72,-3.6 -0.04,-0.64 -0.08,-1.56 0,-0.96 0.08,-1.64 0.16,-1.92 0.8,-3.6 0.68,-1.68 1.84,-2.92 1.16,-1.24 2.84,-1.96 1.68,-0.72 3.88,-0.72 2.2,0 3.84,0.68 1.68,0.68 2.8,1.68 1.16,0.96 1.72,2.12 0.6,1.12 0.64,2.08 0.04,0.44 -0.32,0.76 -0.32,0.32 -0.76,0.32 l -1.2,0 q -0.44,0 -0.76,-0.2 -0.28,-0.24 -0.56,-0.88 -0.76,-1.68 -2.12,-2.4 -1.36,-0.72 -3.28,-0.72 -1,0 -2,0.36 -0.96,0.32 -1.76,1.04 -0.76,0.72 -1.32,1.84 -0.52,1.12 -0.64,2.72 -0.12,1.48 0,2.8 z"
           style="font-style:normal;font-variant:normal;font-weight:normal;font-stretch:normal;font-size:medium;line-height:125%;font-family:Rubik;-inkscape-font-specification:Rubik;letter-spacing:0px;word-spacing:0px;fill:#ffffff;fill-opacity:1;stroke:none;stroke-width:1px;stroke-linecap:butt;stroke-linejoin:miter;stroke-opacity:1"
           id="path6009"
           inkscape:connector-curvature="0" />
        <path
           inkscape:export-ydpi="90"
           inkscape:export-xdpi="90"
           d="m 259.79459,978.64828 0,7.72 q 0,0.44 -0.32,0.76 -0.32,0.32 -0.76,0.32 l -1.48,0 q -0.44,0 -0.76,-0.32 -0.32,-0.32 -0.32,-0.76 l 0,-26.24 q 0,-0.44 0.32,-0.76 0.32,-0.32 0.76,-0.32 l 1.48,0 q 0.44,0 0.76,0.32 0.32,0.32 0.32,0.76 l 0,13.24 7.8,-6.04 q 0.24,-0.2 0.6,-0.44 0.4,-0.24 0.96,-0.24 l 2,0 q 0.4,0 0.68,0.28 0.28,0.28 0.28,0.68 0,0.2 -0.08,0.4 -0.04,0.16 -0.36,0.4 l -9.64,7.52 10.64,9.8 q 0.24,0.24 0.32,0.4 0.08,0.16 0.08,0.36 0,0.4 -0.28,0.68 -0.28,0.28 -0.68,0.28 l -1.88,0 q -0.6,0 -1.04,-0.24 -0.4,-0.24 -0.6,-0.44 l -8.8,-8.12 z"
           style="font-style:normal;font-variant:normal;font-weight:normal;font-stretch:normal;font-size:medium;line-height:125%;font-family:Rubik;-inkscape-font-specification:Rubik;letter-spacing:0px;word-spacing:0px;fill:#ffffff;fill-opacity:1;stroke:none;stroke-width:1px;stroke-linecap:butt;stroke-linejoin:miter;stroke-opacity:1"
           id="path6011"
           inkscape:connector-curvature="0" />
      </g>
    </g>
    <text
       xml:space="preserve"
       style="font-style:normal;font-variant:normal;font-weight:normal;font-stretch:normal;font-size:20px;line-height:125%;font-family:'Bitstream Charter';-inkscape-font-specification:'Bitstream Charter';letter-spacing:0px;word-spacing:0px;fill:#000000;fill-opacity:1;stroke:none;stroke-width:1px;stroke-linecap:butt;stroke-linejoin:miter;stroke-opacity:1"
       x="22.857143"
       y="33.790775"
       id="text6048"
       sodipodi:linespacing="125%"><tspan
         sodipodi:role="line"
         id="tspan6050"
         x="22.857143"
         y="33.790775">Viasock</tspan><tspan
         sodipodi:role="line"
         x="22.857143"
         y="58.790775"
         id="tspan6052">Valerio Basile</tspan><tspan
         sodipodi:role="line"
         x="22.857143"
         y="83.790771"
         id="tspan6054">January 2018</tspan></text>
  </g>
</svg>
